<?xml version="1.0" standalone="no"?>
<!DOCTYPE svg PUBLIC "-//W3C//DTD SVG 20010904//EN"
 "http://www.w3.org/TR/2001/REC-SVG-20010904/DTD/svg10.dtd">
<svg version="1.0" xmlns="http://www.w3.org/2000/svg"
 width="512.000000pt" height="512.000000pt" viewBox="0 0 512.000000 512.000000"
 preserveAspectRatio="xMidYMid meet">
<metadata>
Created by potrace 1.16, written by Peter Selinger 2001-2019
</metadata>
<g transform="translate(0.000000,512.000000) scale(0.100000,-0.100000)"
fill="#000000" stroke="none">
<path d="M3230 5030 l0 -90 175 0 175 0 0 -290 0 -290 -80 0 -80 0 0 169 c0
232 -9 250 -121 251 l-65 0 0 -300 0 -299 670 -3 c657 -3 672 -3 716 -24 25
-11 60 -36 78 -55 63 -64 67 -78 70 -261 l4 -168 -771 0 -771 0 0 -90 0 -90
833 0 834 0 21 -23 c20 -21 22 -34 22 -136 0 -62 -4 -121 -10 -131 -5 -10 -24
-23 -41 -29 -22 -8 -277 -11 -845 -11 l-814 0 0 -90 0 -90 430 0 429 0 3 -316
3 -316 28 -24 28 -24 310 0 309 0 0 -720 0 -719 -315 -3 c-312 -3 -315 -3
-337 -26 -23 -22 -23 -25 -26 -337 l-3 -315 -429 0 -430 0 0 -90 0 -90 838 0
839 0 21 23 22 23 0 1476 0 1476 30 12 c41 17 99 76 121 124 15 34 19 66 19
185 0 81 -5 161 -12 182 -15 50 -69 114 -119 140 l-39 19 0 173 c0 182 -8 226
-53 307 -28 50 -105 127 -155 156 -95 56 -104 57 -559 61 l-423 5 0 344 c0
362 -3 392 -45 408 -9 3 -122 6 -251 6 l-234 0 0 -90z m1540 -2300 l0 -250
-250 0 -250 0 0 250 0 250 250 0 250 0 0 -250z m0 -2300 l0 -250 -250 0 -250
0 0 250 0 250 250 0 250 0 0 -250z"/>
<path d="M4430 2730 l0 -90 90 0 90 0 0 90 0 90 -90 0 -90 0 0 -90z"/>
<path d="M4430 430 l0 -90 90 0 90 0 0 90 0 90 -90 0 -90 0 0 -90z"/>
<path d="M3385 4006 c-41 -18 -57 -39 -58 -80 -1 -25 6 -43 23 -61 l23 -25
509 0 509 0 24 25 c33 32 33 84 1 122 l-24 28 -489 2 c-388 2 -494 0 -518 -11z"/>
<path d="M3230 2013 l0 -128 40 -60 c89 -134 133 -283 134 -455 0 -176 -40
-319 -129 -455 l-46 -69 3 -130 3 -131 63 65 c370 379 387 974 39 1389 -32 38
-69 77 -83 86 l-24 15 0 -127z"/>
</g>
</svg>
