<svg id="svg" version="1.1" xmlns="http://www.w3.org/2000/svg" xmlns:xlink="http://www.w3.org/1999/xlink" width="400" height="400" viewBox="0, 0, 400,400"><g id="svgg"><path id="path0" d="M200.081 6.583 L 200.200 13.166 198.200 13.309 C 197.100 13.388,214.920 13.518,237.800 13.599 C 260.680 13.680,277.960 13.861,276.200 14.000 L 273.000 14.253 276.100 14.327 L 279.200 14.400 279.200 36.800 L 279.200 59.200 273.400 59.200 L 267.600 59.200 267.550 46.000 C 267.495 31.434,267.519 32.185,267.100 31.767 C 266.935 31.602,266.800 31.092,266.800 30.633 C 266.799 29.540,265.360 27.902,263.546 26.930 C 261.337 25.746,196.000 26.045,196.000 27.239 C 196.000 27.438,196.900 27.600,198.000 27.600 L 200.000 27.600 200.000 33.600 L 200.000 39.600 197.700 39.646 L 195.400 39.692 197.000 40.046 C 197.880 40.241,210.795 40.517,225.700 40.660 L 252.800 40.921 252.800 50.000 L 252.800 59.079 225.700 59.340 C 210.795 59.483,197.880 59.759,197.000 59.954 L 195.400 60.308 197.700 60.354 L 200.000 60.400 200.000 66.400 L 200.000 72.400 198.000 72.400 C 194.362 72.400,195.925 73.100,200.100 73.341 C 209.046 73.856,309.987 73.775,308.661 73.253 C 307.983 72.986,307.927 72.447,307.979 66.711 C 308.034 60.491,308.030 60.459,307.117 60.285 C 306.061 60.082,307.580 59.994,318.600 59.619 C 325.597 59.381,324.557 59.338,310.300 59.274 L 294.000 59.200 294.000 31.800 C 294.000 13.800,293.863 4.400,293.600 4.400 C 293.380 4.400,293.200 4.040,293.200 3.600 C 293.200 3.160,293.020 2.800,292.800 2.800 C 292.580 2.800,292.400 2.440,292.400 2.000 C 292.400 1.275,291.973 1.006,291.070 1.163 C 290.889 1.194,290.843 1.054,290.968 0.852 C 291.460 0.056,288.460 0.000,244.949 0.000 L 199.963 0.000 200.081 6.583 M266.600 86.000 C 266.464 86.220,265.665 86.400,264.825 86.400 C 263.283 86.400,260.096 88.814,259.939 90.100 C 259.817 91.104,259.747 91.417,259.442 92.323 C 258.725 94.453,260.101 97.631,262.554 99.514 C 263.756 100.437,289.642 100.776,303.200 100.047 L 307.800 99.800 307.910 93.300 L 308.020 86.800 312.310 86.705 C 314.669 86.652,305.620 86.501,292.200 86.369 C 272.079 86.171,274.096 86.147,303.700 86.232 C 325.352 86.295,339.600 86.190,339.600 85.968 C 339.600 85.445,266.923 85.477,266.600 86.000 M196.800 113.200 C 196.026 113.448,196.297 113.529,198.000 113.560 L 200.200 113.599 200.081 119.942 L 199.963 126.284 202.081 126.559 C 207.578 127.271,323.600 127.883,323.600 127.200 C 323.600 126.950,321.164 126.798,317.100 126.796 C 313.525 126.793,309.970 126.687,309.200 126.560 L 307.800 126.329 307.920 120.406 C 308.032 114.821,308.086 114.471,308.860 114.268 C 309.311 114.150,309.567 113.869,309.427 113.644 C 309.265 113.382,310.294 113.185,312.287 113.098 C 313.999 113.022,288.940 112.943,256.600 112.920 C 224.260 112.898,197.350 113.024,196.800 113.200 M194.200 153.200 C 198.445 153.365,199.228 153.457,196.876 153.516 C 192.687 153.622,192.817 154.400,197.024 154.400 L 200.000 154.400 200.000 160.179 L 200.000 165.958 197.900 166.105 C 196.745 166.186,197.656 166.285,199.924 166.326 C 202.553 166.373,203.958 166.545,203.800 166.800 C 203.638 167.062,206.643 167.200,212.518 167.200 C 217.448 167.200,222.589 167.316,223.941 167.457 L 226.400 167.714 226.400 173.457 C 226.400 176.616,226.355 179.217,226.300 179.237 C 226.245 179.257,220.396 179.406,213.303 179.567 C 206.209 179.729,200.322 179.945,200.219 180.048 C 200.117 180.150,200.009 183.151,199.980 186.717 L 199.928 193.200 198.864 193.271 C 196.205 193.448,212.976 193.907,223.700 193.951 C 231.399 193.983,235.600 193.859,235.600 193.600 C 235.600 193.380,235.870 193.200,236.200 193.200 C 236.530 193.200,236.800 193.020,236.800 192.800 C 236.800 192.580,237.160 192.400,237.600 192.400 C 238.040 192.400,238.400 192.227,238.400 192.016 C 238.400 191.805,238.833 191.220,239.363 190.716 C 240.624 189.516,240.755 188.241,240.780 176.900 L 240.800 167.600 280.100 167.514 C 301.715 167.467,317.244 167.371,314.608 167.300 C 310.912 167.202,309.742 167.039,309.488 166.587 C 309.308 166.264,308.899 166.000,308.580 166.000 C 308.099 166.000,308.000 164.975,308.000 160.000 C 308.000 154.933,308.093 154.000,308.600 154.000 C 308.930 154.000,309.200 153.730,309.200 153.400 C 309.200 152.869,302.248 152.810,248.700 152.884 C 215.425 152.930,190.900 153.072,194.200 153.200 M335.100 167.489 C 335.815 167.578,336.985 167.578,337.700 167.489 C 338.415 167.401,337.830 167.328,336.400 167.328 C 334.970 167.328,334.385 167.401,335.100 167.489 M196.880 213.280 C 196.151 214.009,196.302 214.403,197.300 214.372 C 198.156 214.345,198.161 214.328,197.400 214.014 C 196.638 213.700,196.647 213.664,197.600 213.267 C 198.161 213.034,198.328 212.840,197.980 212.825 C 197.639 212.811,197.144 213.016,196.880 213.280 M199.200 213.424 C 199.200 213.793,199.012 213.931,198.738 213.762 C 198.459 213.589,198.385 213.652,198.551 213.921 C 198.702 214.165,199.090 214.264,199.413 214.140 C 199.913 213.948,200.000 214.789,200.000 219.794 C 200.000 225.068,200.082 225.779,200.800 226.691 C 201.240 227.250,201.600 227.504,201.600 227.254 C 201.600 227.004,201.791 226.800,202.024 226.800 C 202.257 226.800,202.336 226.980,202.200 227.200 C 202.064 227.420,202.244 227.600,202.600 227.600 C 202.956 227.600,203.160 227.459,203.053 227.286 C 202.946 227.113,203.192 226.971,203.600 226.971 C 204.008 226.971,204.254 227.113,204.147 227.286 C 204.040 227.459,204.917 227.600,206.096 227.600 C 207.275 227.600,208.482 227.825,208.779 228.100 C 209.210 228.500,209.261 228.500,209.035 228.100 C 208.862 227.793,208.994 227.600,209.376 227.600 C 209.719 227.600,210.000 227.780,210.000 228.000 C 210.000 228.220,210.889 228.400,211.976 228.400 C 213.063 228.400,214.064 228.580,214.200 228.800 C 214.336 229.020,214.977 229.200,215.624 229.200 C 216.271 229.200,216.800 229.380,216.800 229.600 C 216.800 229.820,217.304 230.000,217.920 230.000 C 218.536 230.000,219.282 230.225,219.579 230.500 C 220.012 230.902,220.059 230.896,219.817 230.470 C 219.532 229.968,220.947 230.547,221.600 231.200 C 221.710 231.310,222.250 231.462,222.800 231.538 C 223.350 231.614,223.860 231.839,223.933 232.038 C 224.007 232.237,224.412 232.400,224.833 232.400 C 225.255 232.400,225.603 232.625,225.606 232.900 C 225.610 233.233,225.742 233.200,226.000 232.800 C 226.258 232.400,226.390 232.367,226.394 232.700 C 226.397 232.975,226.771 233.200,227.224 233.200 C 227.677 233.200,227.936 233.380,227.800 233.600 C 227.664 233.820,227.923 234.000,228.376 234.000 C 228.829 234.000,229.200 234.180,229.200 234.400 C 229.200 234.620,229.605 234.800,230.100 234.800 C 230.595 234.801,231.540 235.269,232.200 235.840 C 232.860 236.412,234.075 237.174,234.900 237.534 C 235.725 237.894,236.400 238.337,236.400 238.518 C 236.400 238.699,236.580 238.736,236.800 238.600 C 237.020 238.464,237.200 238.621,237.200 238.949 C 237.200 239.278,237.579 239.666,238.043 239.814 C 238.833 240.064,239.788 240.734,241.016 241.900 C 241.306 242.175,241.871 242.403,242.271 242.406 C 242.888 242.411,242.908 242.472,242.400 242.800 C 241.892 243.128,241.912 243.189,242.529 243.194 C 242.929 243.197,243.527 243.470,243.857 243.800 C 244.187 244.130,244.345 244.400,244.209 244.400 C 244.073 244.400,245.185 245.616,246.680 247.103 C 248.176 248.589,249.907 250.483,250.527 251.312 C 251.147 252.140,252.092 253.256,252.627 253.791 C 253.162 254.326,253.600 254.912,253.600 255.094 C 253.600 255.275,253.960 255.683,254.400 256.000 C 254.840 256.317,255.200 256.897,255.200 257.288 C 255.200 257.680,255.358 258.000,255.551 258.000 C 255.745 258.000,256.127 258.540,256.400 259.200 C 256.673 259.860,257.055 260.400,257.249 260.400 C 257.442 260.400,257.600 260.760,257.600 261.200 C 257.600 261.640,257.780 262.000,258.000 262.000 C 258.220 262.000,258.400 262.349,258.400 262.776 C 258.400 263.203,258.566 263.655,258.769 263.781 C 258.972 263.906,259.257 264.547,259.401 265.205 C 259.545 265.862,259.829 266.400,260.032 266.400 C 260.234 266.400,260.400 266.749,260.400 267.176 C 260.400 267.603,260.580 268.064,260.800 268.200 C 261.020 268.336,261.200 268.799,261.200 269.229 C 261.200 269.659,261.380 270.368,261.600 270.805 C 261.820 271.242,262.180 271.958,262.400 272.395 C 262.620 272.832,262.800 273.627,262.800 274.161 C 262.800 274.696,262.972 275.193,263.182 275.267 C 263.393 275.340,263.609 276.063,263.663 276.874 C 263.716 277.685,263.904 278.259,264.080 278.151 C 264.256 278.042,264.400 278.863,264.400 279.976 C 264.400 281.089,264.580 282.000,264.800 282.000 C 265.029 282.000,265.200 283.200,265.200 284.800 C 265.200 286.400,265.371 287.600,265.600 287.600 C 265.849 287.600,266.000 289.867,266.000 293.600 C 266.000 296.960,265.839 299.600,265.634 299.600 C 265.433 299.600,265.171 300.725,265.052 302.100 C 264.678 306.404,264.332 308.400,263.960 308.400 C 263.762 308.400,263.597 308.895,263.594 309.500 C 263.588 310.635,262.758 313.375,262.274 313.859 C 262.123 314.010,262.000 314.466,262.000 314.872 C 262.000 315.278,261.833 315.923,261.629 316.305 C 261.109 317.280,260.651 318.520,260.617 319.046 C 260.601 319.291,260.388 319.741,260.143 320.046 C 259.637 320.676,259.002 322.450,259.121 322.900 C 259.164 323.065,259.020 323.200,258.800 323.200 C 258.580 323.200,258.400 323.560,258.400 324.000 C 258.400 324.440,258.220 324.800,258.000 324.800 C 257.780 324.800,257.600 325.094,257.600 325.453 C 257.600 325.812,257.276 326.397,256.880 326.753 C 256.483 327.109,255.858 328.030,255.490 328.800 C 255.122 329.570,254.366 330.624,253.810 331.142 C 253.255 331.660,252.800 332.253,252.800 332.460 C 252.800 332.667,252.347 333.290,251.792 333.844 C 251.238 334.398,250.906 335.048,251.054 335.288 C 251.211 335.541,251.139 335.610,250.882 335.451 C 250.638 335.300,250.225 335.579,249.962 336.072 C 249.698 336.563,248.619 337.808,247.562 338.837 C 246.506 339.866,245.752 340.819,245.887 340.954 C 246.023 341.089,245.908 341.200,245.633 341.200 C 245.358 341.200,244.478 341.875,243.677 342.700 C 242.875 343.525,242.188 344.110,242.149 344.000 C 242.110 343.890,241.438 344.382,240.656 345.094 C 239.874 345.806,239.001 346.436,238.717 346.494 C 238.433 346.552,237.909 346.915,237.553 347.300 C 237.197 347.685,236.761 348.000,236.585 348.000 C 236.408 348.000,235.933 348.299,235.529 348.664 C 234.642 349.467,233.379 350.219,231.900 350.827 C 231.296 351.075,230.901 351.440,231.024 351.639 C 231.147 351.838,230.877 352.000,230.424 352.000 C 229.971 352.000,229.600 352.136,229.600 352.302 C 229.600 352.600,227.075 353.600,226.100 353.688 C 225.825 353.713,225.600 353.883,225.600 354.067 C 225.600 354.250,225.229 354.400,224.776 354.400 C 224.323 354.400,224.064 354.580,224.200 354.800 C 224.347 355.038,223.871 355.200,223.024 355.200 C 222.241 355.200,221.600 355.380,221.600 355.600 C 221.600 355.820,221.240 356.000,220.800 356.000 C 220.360 356.000,220.000 356.180,220.000 356.400 C 220.000 356.620,219.865 356.779,219.700 356.753 C 218.499 356.563,216.394 356.867,216.600 357.200 C 216.750 357.442,216.196 357.600,215.200 357.600 C 214.204 357.600,213.650 357.758,213.800 358.000 C 214.031 358.374,211.751 358.585,209.200 358.426 C 208.481 358.382,208.351 358.467,208.739 358.730 C 209.080 358.961,208.105 359.061,206.072 359.002 C 203.596 358.930,202.912 359.026,203.064 359.424 C 203.270 359.958,202.544 359.992,201.734 359.486 C 201.478 359.326,201.163 359.421,201.034 359.698 C 200.847 360.099,200.753 360.099,200.567 359.700 C 199.949 358.377,199.811 359.718,199.934 365.800 L 200.069 372.400 198.934 372.432 C 198.310 372.449,198.025 372.554,198.300 372.665 C 198.575 372.776,198.800 373.042,198.800 373.257 C 198.800 373.472,198.620 373.536,198.400 373.400 C 198.180 373.264,198.000 373.343,198.000 373.576 C 198.000 374.223,199.083 374.081,199.345 373.400 C 199.471 373.070,199.783 372.800,200.036 372.800 C 200.369 372.800,200.359 372.968,200.000 373.400 C 199.573 373.915,199.711 374.000,200.975 374.000 C 201.785 374.000,202.355 373.850,202.241 373.667 C 202.128 373.483,202.297 373.333,202.618 373.333 C 202.938 373.333,203.200 373.456,203.200 373.606 C 203.200 373.756,203.740 373.894,204.400 373.912 C 205.060 373.931,205.600 373.809,205.600 373.640 C 205.600 373.471,205.862 373.333,206.182 373.333 C 206.503 373.333,206.672 373.483,206.559 373.667 C 206.445 373.850,206.633 374.000,206.976 374.000 C 207.319 374.000,207.603 373.775,207.606 373.500 C 207.611 373.126,207.697 373.134,207.950 373.534 C 208.223 373.963,208.336 373.944,208.531 373.435 C 208.729 372.920,209.255 372.838,211.369 372.993 C 212.872 373.102,214.067 373.015,214.210 372.785 C 214.345 372.566,214.623 372.491,214.828 372.617 C 215.032 372.744,215.200 372.688,215.200 372.494 C 215.200 372.300,215.785 372.174,216.500 372.215 C 217.215 372.255,217.997 372.135,218.237 371.948 C 218.477 371.760,219.205 371.549,219.855 371.478 C 220.505 371.407,221.237 371.224,221.482 371.073 C 221.728 370.921,222.440 370.760,223.064 370.715 C 223.689 370.671,224.290 370.536,224.400 370.417 C 224.988 369.780,226.475 369.157,226.183 369.670 C 225.941 370.096,225.988 370.102,226.421 369.700 C 226.718 369.425,227.359 369.200,227.847 369.200 C 228.334 369.200,228.796 369.012,228.873 368.782 C 228.949 368.552,229.414 368.334,229.906 368.297 C 230.398 368.260,230.800 368.088,230.800 367.915 C 230.800 367.742,231.087 367.600,231.438 367.600 C 231.789 367.600,232.554 367.260,233.138 366.844 C 233.722 366.428,234.290 366.096,234.400 366.106 C 234.934 366.154,237.600 364.999,237.600 364.720 C 237.600 364.544,237.960 364.400,238.400 364.400 C 238.840 364.400,239.200 364.220,239.200 364.000 C 239.200 363.780,239.436 363.600,239.725 363.600 C 240.013 363.600,240.636 363.240,241.108 362.800 C 241.580 362.360,242.204 362.000,242.495 362.000 C 242.786 362.000,243.283 361.640,243.600 361.200 C 243.917 360.760,244.457 360.400,244.800 360.400 C 245.143 360.400,245.683 360.040,246.000 359.600 C 246.317 359.160,246.837 358.800,247.155 358.800 C 247.473 358.800,247.624 358.690,247.490 358.556 C 247.355 358.422,248.090 357.863,249.123 357.314 C 250.155 356.766,251.540 355.807,252.200 355.183 C 252.860 354.560,254.157 353.341,255.082 352.474 C 256.007 351.607,256.669 350.802,256.552 350.685 C 256.435 350.569,256.713 350.354,257.170 350.210 C 257.626 350.065,258.000 349.768,258.000 349.551 C 258.000 349.334,259.080 348.096,260.400 346.800 C 261.720 345.504,262.800 344.254,262.800 344.022 C 262.800 343.790,262.980 343.600,263.200 343.600 C 263.420 343.600,263.600 343.422,263.600 343.205 C 263.600 342.849,264.244 341.944,265.413 340.655 C 265.640 340.405,266.262 339.570,266.794 338.800 C 267.326 338.030,267.864 337.310,267.990 337.200 C 268.116 337.090,268.830 335.830,269.578 334.400 C 270.325 332.970,271.085 331.740,271.268 331.667 C 271.451 331.593,271.600 331.276,271.600 330.961 C 271.600 330.327,272.414 328.736,272.934 328.355 C 273.118 328.221,273.236 327.988,273.196 327.839 C 273.124 327.569,274.952 322.833,275.640 321.505 C 275.838 321.123,276.000 320.448,276.000 320.005 C 276.000 319.562,276.180 319.200,276.400 319.200 C 276.620 319.200,276.800 318.660,276.800 318.000 C 276.800 317.340,276.980 316.800,277.200 316.800 C 277.420 316.800,277.600 316.080,277.600 315.200 C 277.600 314.320,277.780 313.600,278.000 313.600 C 278.220 313.600,278.400 312.880,278.400 312.000 C 278.400 311.120,278.580 310.400,278.800 310.400 C 279.022 310.400,279.200 309.333,279.200 308.000 C 279.200 306.667,279.378 305.600,279.600 305.600 C 279.835 305.600,280.000 304.200,280.000 302.200 C 280.000 300.200,280.165 298.800,280.400 298.800 C 280.648 298.800,280.800 296.600,280.800 293.000 C 280.800 289.400,280.648 287.200,280.400 287.200 C 280.164 287.200,280.000 285.792,280.000 283.776 C 280.000 281.596,279.855 280.443,279.600 280.600 C 279.352 280.753,279.200 280.004,279.200 278.624 C 279.200 277.401,279.057 276.400,278.882 276.400 C 278.707 276.400,278.519 275.725,278.464 274.900 C 278.410 274.075,278.193 273.340,277.982 273.267 C 277.772 273.193,277.600 272.428,277.600 271.567 C 277.600 270.705,277.420 270.000,277.200 270.000 C 276.980 270.000,276.800 269.460,276.800 268.800 C 276.800 268.140,276.620 267.600,276.400 267.600 C 276.180 267.600,276.000 267.161,276.000 266.624 C 276.000 266.087,275.820 265.536,275.600 265.400 C 275.380 265.264,275.200 264.801,275.200 264.371 C 275.200 263.589,275.086 263.299,273.857 260.938 C 273.496 260.244,273.200 259.389,273.200 259.038 C 273.200 258.687,273.020 258.400,272.800 258.400 C 272.580 258.400,272.400 258.040,272.400 257.600 C 272.400 257.160,272.243 256.800,272.050 256.800 C 271.858 256.800,271.596 256.282,271.470 255.648 C 271.343 255.015,270.960 254.218,270.620 253.877 C 270.279 253.536,270.000 253.147,270.000 253.012 C 270.000 252.877,269.640 252.380,269.200 251.908 C 268.760 251.436,268.400 250.723,268.400 250.325 C 268.400 249.926,268.220 249.600,268.000 249.600 C 267.780 249.600,267.600 249.364,267.600 249.075 C 267.600 248.787,267.240 248.164,266.800 247.692 C 266.360 247.220,266.000 246.635,266.000 246.393 C 266.000 246.151,265.820 246.064,265.600 246.200 C 265.380 246.336,265.197 246.212,265.193 245.924 C 265.184 245.272,263.619 243.305,260.975 240.622 C 259.861 239.492,258.832 238.260,258.687 237.884 C 258.543 237.508,258.119 237.200,257.746 237.200 C 257.372 237.200,257.188 237.078,257.337 236.930 C 257.697 236.569,256.011 234.800,255.307 234.800 C 255.002 234.800,254.822 234.665,254.908 234.500 C 254.993 234.335,254.283 233.439,253.331 232.509 C 252.379 231.579,251.600 230.912,251.600 231.025 C 251.600 231.254,251.227 230.964,249.258 229.201 C 248.519 228.541,247.779 228.000,247.612 228.000 C 247.445 228.000,246.699 227.463,245.954 226.806 C 245.209 226.150,244.411 225.610,244.180 225.606 C 243.512 225.596,241.607 224.630,241.603 224.300 C 241.601 224.135,241.283 224.000,240.896 224.000 C 240.509 224.000,239.968 223.640,239.693 223.200 C 239.418 222.760,238.925 222.400,238.597 222.400 C 238.268 222.400,238.000 222.190,238.000 221.933 C 238.000 221.677,237.890 221.576,237.756 221.710 C 237.623 221.844,236.325 221.334,234.872 220.577 C 233.420 219.820,232.020 219.200,231.762 219.200 C 231.503 219.200,230.789 218.939,230.174 218.620 C 229.560 218.302,228.909 218.132,228.729 218.244 C 228.548 218.356,228.400 218.257,228.400 218.024 C 228.400 217.791,228.040 217.600,227.600 217.600 C 227.160 217.600,226.800 217.420,226.800 217.200 C 226.800 216.980,226.260 216.800,225.600 216.800 C 224.940 216.800,224.400 216.620,224.400 216.400 C 224.400 216.180,223.669 216.000,222.776 216.000 C 221.651 216.000,221.240 215.858,221.438 215.538 C 221.607 215.265,221.549 215.184,221.295 215.341 C 221.060 215.487,220.357 215.395,219.734 215.136 C 218.497 214.625,217.926 214.526,215.776 214.450 C 214.993 214.423,214.448 214.245,214.565 214.056 C 214.682 213.867,214.342 213.760,213.809 213.819 C 213.277 213.877,212.157 213.754,211.321 213.545 C 208.916 212.944,201.953 212.741,201.335 213.254 C 200.942 213.580,200.800 213.578,200.800 213.249 C 200.800 213.002,200.440 212.800,200.000 212.800 C 199.542 212.800,199.200 213.067,199.200 213.424 M329.116 220.697 C 330.499 220.775,332.659 220.774,333.916 220.695 C 335.172 220.616,334.040 220.552,331.400 220.553 C 328.760 220.553,327.732 220.618,329.116 220.697 M194.200 253.200 C 198.445 253.365,199.228 253.457,196.876 253.516 C 192.687 253.622,192.817 254.400,197.024 254.400 L 200.000 254.400 200.000 260.179 L 200.000 265.958 197.900 266.105 C 196.745 266.186,197.656 266.285,199.924 266.326 C 202.362 266.370,203.953 266.553,203.816 266.774 C 203.689 266.980,204.173 267.205,204.892 267.274 L 206.200 267.400 206.200 274.262 C 206.200 278.036,206.332 280.916,206.494 280.662 C 206.736 280.281,207.012 282.656,206.847 283.700 C 206.821 283.865,206.952 284.000,207.139 284.000 C 207.437 284.000,208.039 284.437,209.883 285.993 C 210.149 286.217,210.599 286.403,210.883 286.406 C 211.250 286.410,211.226 286.525,210.800 286.800 C 210.402 287.057,212.922 287.190,218.300 287.194 L 226.400 287.200 226.400 293.400 L 226.400 299.600 218.700 299.663 C 214.465 299.698,210.777 299.718,210.504 299.708 C 210.232 299.698,210.107 299.850,210.228 300.045 C 210.349 300.240,210.104 300.400,209.686 300.400 C 209.267 300.400,208.581 300.791,208.162 301.269 C 207.676 301.823,207.617 302.017,208.000 301.804 C 208.330 301.621,208.186 301.927,207.679 302.484 C 207.173 303.040,206.729 303.880,206.694 304.348 C 206.659 304.817,206.533 305.200,206.415 305.200 C 206.297 305.199,206.260 308.330,206.333 312.156 L 206.465 319.112 203.733 319.349 C 202.230 319.480,199.380 319.724,197.400 319.893 L 193.800 320.200 196.800 320.400 L 199.800 320.600 199.910 326.672 L 200.021 332.745 198.910 332.913 C 198.300 333.005,199.150 333.110,200.800 333.146 C 202.902 333.192,203.620 333.328,203.200 333.600 C 201.912 334.433,213.868 334.083,215.619 333.236 C 216.498 332.812,217.200 332.658,217.200 332.891 C 217.200 333.563,219.585 330.689,219.848 329.700 C 219.979 329.205,220.208 328.800,220.356 328.800 C 220.504 328.800,220.568 325.373,220.499 321.183 L 220.372 313.567 227.086 313.601 C 230.779 313.619,234.440 313.627,235.222 313.617 C 237.339 313.592,239.719 311.252,240.327 308.600 C 240.697 306.986,240.833 279.921,240.474 279.464 C 240.273 279.209,240.180 278.505,240.268 277.900 C 240.356 277.295,240.241 276.800,240.014 276.800 C 239.786 276.800,239.600 276.530,239.600 276.200 C 239.600 275.870,239.407 275.600,239.171 275.600 C 238.579 275.600,237.582 274.551,237.886 274.248 C 238.022 274.111,237.823 274.000,237.443 274.000 C 237.063 274.000,236.864 273.820,237.000 273.600 C 237.151 273.355,236.530 273.200,235.400 273.200 C 234.384 273.200,233.649 273.044,233.766 272.854 C 233.884 272.664,231.375 272.475,228.190 272.434 C 224.359 272.384,222.400 272.501,222.400 272.779 C 222.400 273.011,222.043 273.200,221.608 273.200 C 220.456 273.200,220.309 272.100,220.463 264.630 C 220.562 259.826,220.471 257.959,220.131 257.829 C 219.862 257.726,219.761 257.271,219.894 256.762 C 220.022 256.274,219.963 255.964,219.763 256.074 C 219.563 256.184,219.096 255.953,218.725 255.562 C 218.249 255.060,218.190 254.793,218.525 254.657 C 218.786 254.550,218.685 254.449,218.300 254.432 C 217.915 254.414,217.600 254.209,217.600 253.976 C 217.600 253.743,217.419 253.665,217.197 253.802 C 216.976 253.939,216.681 253.754,216.542 253.392 C 216.339 252.865,216.221 252.840,215.950 253.266 C 215.697 253.666,215.611 253.674,215.606 253.300 C 215.601 252.908,212.635 252.818,201.900 252.884 C 191.572 252.947,189.677 253.025,194.200 253.200 M329.700 332.697 C 331.405 332.772,334.195 332.772,335.900 332.697 C 337.605 332.622,336.210 332.561,332.800 332.561 C 329.390 332.561,327.995 332.622,329.700 332.697 M193.800 359.200 C 193.936 359.420,194.307 359.600,194.624 359.600 C 194.941 359.600,195.200 359.420,195.200 359.200 C 195.200 358.980,194.829 358.800,194.376 358.800 C 193.923 358.800,193.664 358.980,193.800 359.200 M197.733 359.867 C 197.733 360.160,198.058 360.400,198.454 360.400 C 198.890 360.400,199.094 360.190,198.970 359.867 C 198.858 359.573,198.533 359.333,198.249 359.333 C 197.966 359.333,197.733 359.573,197.733 359.867 M194.900 373.876 C 195.285 373.976,195.915 373.976,196.300 373.876 C 196.685 373.775,196.370 373.693,195.600 373.693 C 194.830 373.693,194.515 373.775,194.900 373.876 M285.200 386.000 C 291.910 386.120,274.630 386.292,246.800 386.383 C 218.970 386.474,197.100 386.612,198.200 386.691 L 200.200 386.834 200.081 393.417 L 199.963 400.000 253.981 400.000 L 308.000 400.000 308.000 393.450 L 308.000 386.900 309.250 386.650 C 309.938 386.513,312.457 386.400,314.850 386.400 C 317.483 386.400,319.200 386.242,319.200 386.000 C 319.200 385.737,311.294 385.631,296.100 385.691 C 276.544 385.768,274.872 385.816,285.200 386.000 M334.000 386.000 C 334.000 386.260,339.400 386.400,349.400 386.400 C 359.400 386.400,364.800 386.260,364.800 386.000 C 364.800 385.740,359.400 385.600,349.400 385.600 C 339.400 385.600,334.000 385.740,334.000 386.000 " stroke="none" fill="#3292d3" fill-rule="evenodd"></path><path id="path1" d="M109.222 0.900 C 108.796 1.395,108.078 2.233,107.624 2.761 C 107.171 3.290,106.800 4.245,106.800 4.885 C 106.800 5.524,106.665 5.964,106.500 5.862 C 106.335 5.760,106.252 17.404,106.316 31.738 C 106.379 46.072,106.331 58.205,106.208 58.700 C 105.990 59.580,105.850 59.602,99.892 59.672 C 96.542 59.712,94.650 59.811,95.690 59.894 L 97.580 60.043 97.690 66.315 L 97.800 72.587 99.400 72.965 C 101.981 73.574,132.223 73.514,132.100 72.900 C 132.045 72.625,132.180 72.400,132.400 72.400 C 132.649 72.400,132.800 70.129,132.800 66.387 C 132.800 61.270,132.894 60.339,133.434 60.132 C 134.976 59.540,132.662 59.212,126.900 59.206 L 120.800 59.200 120.800 36.400 L 120.800 13.600 128.400 13.600 C 133.200 13.600,136.000 13.453,136.000 13.200 C 136.000 12.980,135.280 12.800,134.400 12.800 L 132.800 12.800 132.800 6.400 L 132.800 0.000 121.397 -0.000 C 110.068 -0.000,109.990 0.006,109.222 0.900 M147.200 13.857 C 147.970 13.924,159.670 14.029,173.200 14.089 C 186.730 14.150,196.450 14.089,194.800 13.952 C 193.150 13.816,181.450 13.711,168.800 13.720 C 156.150 13.728,146.430 13.789,147.200 13.857 M136.449 26.761 C 136.135 26.960,136.029 27.324,136.204 27.607 C 136.435 27.980,136.602 27.939,136.880 27.443 C 137.083 27.080,137.418 26.888,137.625 27.015 C 137.831 27.143,138.000 27.057,138.000 26.824 C 138.000 26.313,137.207 26.281,136.449 26.761 M133.941 29.300 C 133.306 30.474,133.156 31.925,133.638 32.223 C 133.848 32.353,133.994 32.311,133.963 32.130 C 133.786 31.115,134.053 29.586,134.372 29.783 C 134.577 29.909,134.858 29.830,134.996 29.607 C 135.134 29.383,135.046 29.200,134.800 29.200 C 134.554 29.200,134.464 29.020,134.600 28.800 C 134.736 28.580,134.753 28.400,134.638 28.400 C 134.522 28.400,134.209 28.805,133.941 29.300 M132.411 45.800 C 132.384 57.194,132.456 58.800,132.990 58.800 C 133.618 58.800,133.962 35.010,133.357 33.433 C 132.629 31.535,132.438 34.024,132.411 45.800 M147.900 40.682 C 148.395 40.778,149.205 40.778,149.700 40.682 C 150.195 40.587,149.790 40.509,148.800 40.509 C 147.810 40.509,147.405 40.587,147.900 40.682 M147.900 59.482 C 148.395 59.578,149.205 59.578,149.700 59.482 C 150.195 59.387,149.790 59.309,148.800 59.309 C 147.810 59.309,147.405 59.387,147.900 59.482 M132.900 86.009 C 132.967 86.281,128.177 86.411,118.499 86.399 C 110.524 86.389,102.559 86.501,100.799 86.648 L 97.600 86.915 97.600 93.445 L 97.600 99.975 92.700 100.101 C 90.005 100.170,97.709 100.266,109.820 100.314 C 126.511 100.379,131.956 100.284,132.320 99.920 C 132.653 99.587,132.800 97.507,132.800 93.144 C 132.800 89.377,132.961 86.748,133.200 86.600 C 133.420 86.464,133.600 86.623,133.600 86.953 C 133.600 87.809,134.338 88.150,135.000 87.600 C 135.311 87.342,135.798 87.263,136.082 87.424 C 136.461 87.638,136.484 87.591,136.171 87.249 C 135.934 86.992,135.305 86.697,134.772 86.595 C 134.239 86.492,133.742 86.226,133.668 86.004 C 133.491 85.474,132.770 85.478,132.900 86.009 M139.181 89.200 C 139.139 89.530,139.149 89.980,139.204 90.200 C 139.258 90.420,139.309 90.825,139.318 91.100 C 139.336 91.700,139.855 91.758,140.200 91.200 C 140.336 90.980,140.246 90.800,140.000 90.800 C 139.754 90.800,139.631 90.665,139.726 90.500 C 139.822 90.335,139.755 89.840,139.578 89.400 C 139.351 88.836,139.234 88.777,139.181 89.200 M139.903 92.993 C 139.796 93.557,139.891 94.133,140.115 94.271 C 140.349 94.416,140.402 94.326,140.238 94.062 C 140.081 93.808,140.127 93.600,140.341 93.600 C 140.555 93.600,140.690 93.335,140.643 93.012 C 140.488 91.954,140.104 91.944,139.903 92.993 M138.825 96.354 C 138.500 96.961,138.556 97.097,139.111 97.054 C 139.895 96.993,140.443 96.394,140.150 95.919 C 139.815 95.378,139.247 95.564,138.825 96.354 M134.302 99.501 C 134.579 99.593,134.703 99.833,134.579 100.034 C 134.455 100.235,134.543 100.400,134.776 100.400 C 135.009 100.400,135.203 100.175,135.206 99.900 C 135.211 99.515,135.288 99.519,135.541 99.919 C 135.809 100.340,135.957 100.334,136.329 99.886 C 136.705 99.433,136.519 99.333,135.294 99.333 C 134.472 99.333,134.026 99.409,134.302 99.501 M99.500 113.093 C 101.951 113.314,101.854 114.400,99.384 114.400 L 97.568 114.400 97.620 120.544 L 97.673 126.688 107.136 126.943 C 112.341 127.083,136.130 127.265,160.000 127.347 L 203.400 127.497 169.800 127.187 C 151.320 127.017,135.480 126.722,134.600 126.532 L 133.000 126.187 132.889 120.294 L 132.779 114.400 134.189 114.400 C 135.156 114.400,135.600 114.217,135.600 113.819 C 135.600 113.388,136.246 113.201,138.100 113.096 C 139.475 113.018,130.970 112.951,119.200 112.947 C 107.430 112.943,98.565 113.009,99.500 113.093 M97.600 153.200 C 97.930 153.413,98.020 153.590,97.800 153.593 C 97.545 153.597,97.443 155.902,97.519 159.939 L 97.637 166.279 102.481 166.540 C 105.146 166.683,108.692 166.840,110.363 166.889 C 112.033 166.938,108.990 167.078,103.600 167.200 C 98.210 167.322,106.670 167.422,122.400 167.423 C 138.130 167.424,148.573 167.369,145.608 167.300 C 142.642 167.232,140.041 167.001,139.828 166.788 C 139.614 166.574,137.721 166.397,135.620 166.394 C 133.455 166.390,132.026 166.245,132.321 166.057 C 132.720 165.804,132.813 164.312,132.721 159.663 L 132.600 153.599 134.400 153.527 C 138.686 153.357,122.270 152.904,110.200 152.860 C 101.549 152.829,97.207 152.946,97.600 153.200 M160.800 191.155 C 160.800 191.595,161.959 192.574,162.198 192.336 C 162.296 192.238,162.021 191.854,161.588 191.483 C 161.155 191.111,160.800 190.964,160.800 191.155 M139.762 239.938 C 139.919 240.192,139.857 240.400,139.624 240.400 C 139.391 240.400,139.200 240.689,139.200 241.043 C 139.200 241.440,138.978 241.601,138.620 241.463 C 138.230 241.313,138.115 241.433,138.267 241.831 C 138.446 242.296,138.615 242.319,139.069 241.943 C 140.033 241.142,140.457 240.082,139.939 239.762 C 139.652 239.585,139.585 239.652,139.762 239.938 M137.054 242.973 C 136.317 244.098,136.250 244.400,136.736 244.400 C 137.112 244.400,138.120 242.387,137.869 242.136 C 137.781 242.047,137.414 242.424,137.054 242.973 M134.621 246.224 C 134.252 246.788,134.037 247.463,134.143 247.724 C 134.250 247.986,134.351 247.891,134.368 247.513 C 134.389 247.071,134.615 246.908,135.000 247.055 C 135.439 247.224,135.600 247.005,135.600 246.243 C 135.600 244.943,135.462 244.940,134.621 246.224 M133.083 248.795 C 133.215 249.299,133.055 249.681,132.648 249.837 C 132.294 249.973,132.104 250.245,132.226 250.442 C 132.348 250.639,132.269 250.800,132.051 250.800 C 131.833 250.800,131.247 251.373,130.749 252.072 C 130.250 252.772,130.086 253.194,130.383 253.010 C 130.746 252.786,130.830 252.828,130.638 253.138 C 130.481 253.392,130.086 253.600,129.759 253.600 C 129.432 253.600,129.204 253.825,129.252 254.100 C 129.368 254.773,128.363 256.800,127.912 256.800 C 127.715 256.800,127.655 256.965,127.780 257.168 C 127.905 257.370,127.723 257.820,127.375 258.168 C 127.027 258.515,126.850 258.800,126.981 258.800 C 127.111 258.800,126.953 259.205,126.629 259.700 C 126.304 260.195,126.007 260.780,125.969 261.000 C 125.836 261.753,125.541 262.600,125.171 263.295 C 124.967 263.677,124.800 264.362,124.800 264.818 C 124.800 265.274,124.620 265.536,124.400 265.400 C 124.179 265.263,124.000 265.553,124.000 266.048 C 124.000 266.989,123.346 269.316,122.751 270.495 C 122.558 270.877,122.400 271.732,122.400 272.395 C 122.400 273.058,122.220 273.600,122.000 273.600 C 121.780 273.600,121.600 274.284,121.600 275.120 C 121.600 275.956,121.430 276.811,121.223 277.020 C 121.015 277.229,120.803 278.345,120.751 279.500 C 120.699 280.655,120.527 281.600,120.367 281.600 C 119.783 281.600,119.063 297.868,119.631 298.219 C 119.834 298.345,120.000 300.136,120.000 302.200 C 120.000 304.270,120.179 306.064,120.400 306.200 C 120.620 306.336,120.800 307.337,120.800 308.424 C 120.800 309.511,120.980 310.400,121.200 310.400 C 121.420 310.400,121.600 311.041,121.600 311.824 C 121.600 312.671,121.762 313.147,122.000 313.000 C 122.240 312.852,122.400 313.369,122.400 314.296 C 122.400 315.145,122.608 316.048,122.861 316.301 C 123.115 316.555,123.307 317.314,123.288 317.989 C 123.269 318.663,123.421 319.111,123.627 318.984 C 123.832 318.857,124.000 319.224,124.000 319.800 C 124.000 320.396,124.172 320.741,124.400 320.600 C 124.633 320.456,124.800 320.863,124.800 321.576 C 124.800 322.249,124.980 322.800,125.200 322.800 C 125.420 322.800,125.600 323.340,125.600 324.000 C 125.600 324.660,125.791 325.200,126.024 325.200 C 126.257 325.200,126.349 325.360,126.228 325.555 C 126.107 325.750,126.266 326.123,126.581 326.384 C 126.895 326.645,127.054 327.114,126.935 327.426 C 126.815 327.738,127.006 328.104,127.358 328.239 C 127.711 328.375,128.000 328.826,128.000 329.243 C 128.000 329.659,128.193 330.000,128.429 330.000 C 128.665 330.000,128.796 330.315,128.719 330.700 C 128.643 331.085,128.945 331.729,129.390 332.130 C 129.836 332.532,129.930 332.728,129.600 332.566 C 129.270 332.404,129.436 332.750,129.970 333.335 C 130.503 333.921,130.811 334.400,130.654 334.400 C 130.497 334.400,130.736 334.794,131.184 335.275 C 131.633 335.757,132.000 336.267,132.000 336.409 C 132.000 336.551,132.240 336.667,132.533 336.667 C 132.827 336.667,133.067 336.437,133.067 336.156 C 133.067 335.874,132.962 335.656,132.833 335.670 C 132.102 335.748,131.659 335.531,131.452 334.991 C 131.261 334.494,131.364 334.459,132.009 334.805 C 132.792 335.224,132.800 335.035,132.800 316.934 C 132.800 303.474,132.918 298.758,133.246 299.086 C 133.492 299.332,133.719 300.208,133.751 301.035 C 133.802 302.334,134.800 303.643,134.800 302.410 C 134.800 302.158,134.620 302.064,134.400 302.200 C 134.180 302.336,134.000 302.257,134.000 302.024 C 134.000 301.791,134.178 301.600,134.396 301.600 C 134.613 301.600,134.755 301.163,134.711 300.629 C 134.666 300.095,134.501 299.737,134.344 299.835 C 134.186 299.932,133.995 299.604,133.919 299.106 C 133.843 298.608,133.560 298.245,133.291 298.300 C 133.021 298.355,132.800 298.136,132.800 297.813 C 132.800 297.455,133.035 297.315,133.400 297.455 C 133.823 297.618,134.000 297.422,134.000 296.794 C 134.000 296.041,133.905 295.981,133.391 296.408 C 132.882 296.830,132.823 296.806,133.034 296.257 C 133.172 295.895,133.403 295.600,133.547 295.600 C 133.691 295.600,133.831 295.037,133.860 294.349 C 133.888 293.660,133.791 293.291,133.645 293.527 C 133.016 294.545,132.406 293.273,132.501 291.141 C 132.585 289.255,132.704 288.954,133.300 289.110 C 133.974 289.286,134.185 288.861,134.021 287.660 C 133.975 287.329,134.136 287.237,134.435 287.422 C 134.747 287.615,134.821 287.557,134.638 287.262 C 134.226 286.595,133.200 286.694,133.200 287.400 C 133.200 287.730,133.391 288.000,133.624 288.000 C 133.857 288.000,133.926 288.196,133.778 288.435 C 132.942 289.789,132.793 286.667,132.892 269.872 C 132.951 259.822,132.865 251.600,132.700 251.600 C 132.170 251.600,132.377 250.937,133.256 249.820 C 133.913 248.985,134.190 248.856,134.449 249.266 C 134.689 249.645,134.790 249.659,134.794 249.314 C 134.799 248.895,133.621 248.000,133.064 248.000 C 132.960 248.000,132.968 248.358,133.083 248.795 M148.712 251.578 C 148.356 251.993,148.170 252.436,148.297 252.564 C 148.424 252.691,148.788 252.424,149.105 251.972 C 149.854 250.903,149.550 250.599,148.712 251.578 M138.287 268.007 C 137.927 268.428,137.772 268.859,137.944 268.966 C 138.117 269.072,138.552 268.814,138.913 268.393 C 139.273 267.972,139.428 267.541,139.256 267.434 C 139.083 267.328,138.648 267.586,138.287 268.007 M136.891 271.584 C 136.353 272.033,136.151 272.446,136.394 272.597 C 136.838 272.871,137.737 272.091,137.900 271.290 C 138.028 270.662,137.980 270.676,136.891 271.584 M135.769 273.104 C 136.154 273.789,135.643 275.274,135.131 274.958 C 134.854 274.786,134.847 274.948,135.108 275.452 C 135.561 276.326,135.436 277.524,134.828 278.132 C 134.592 278.368,134.400 278.897,134.400 279.309 C 134.400 279.928,134.490 279.966,134.922 279.529 C 135.996 278.442,136.410 276.923,135.912 275.900 C 135.695 275.452,135.730 275.200,136.010 275.200 C 136.250 275.200,136.345 275.035,136.221 274.834 C 136.097 274.633,136.221 274.385,136.498 274.282 C 136.859 274.148,136.788 273.887,136.244 273.348 C 135.828 272.937,135.614 272.827,135.769 273.104 M134.600 280.400 C 134.160 280.589,134.031 280.756,134.314 280.772 C 134.672 280.791,134.719 281.013,134.470 281.500 C 133.727 282.950,133.540 285.464,134.250 284.451 C 134.592 283.962,134.773 283.307,134.653 282.994 C 134.533 282.682,134.586 282.333,134.770 282.219 C 134.954 282.105,135.191 281.559,135.297 281.006 C 135.403 280.453,135.469 280.013,135.445 280.028 C 135.420 280.044,135.040 280.211,134.600 280.400 M132.926 292.495 C 132.902 292.993,132.969 293.174,133.075 292.898 C 133.181 292.621,133.456 292.511,133.686 292.653 C 133.918 292.797,134.025 292.676,133.927 292.381 C 133.624 291.471,132.973 291.546,132.926 292.495 M134.432 304.687 C 134.413 304.968,134.126 305.070,133.752 304.926 C 133.333 304.766,133.439 305.026,134.052 305.665 C 135.114 306.770,135.577 306.756,135.492 305.620 C 135.460 305.199,135.307 304.934,135.151 305.030 C 134.996 305.126,134.777 304.979,134.666 304.702 C 134.513 304.324,134.455 304.320,134.432 304.687 M134.945 308.000 C 135.079 308.550,135.192 309.135,135.195 309.300 C 135.198 309.465,135.380 309.600,135.600 309.600 C 136.192 309.600,136.063 308.711,135.337 307.800 C 134.716 307.020,134.706 307.025,134.945 308.000 M135.024 310.309 C 134.927 310.406,135.184 310.846,135.595 311.286 C 136.005 311.727,136.254 312.315,136.148 312.592 C 136.041 312.870,136.253 313.212,136.619 313.352 C 136.984 313.492,137.199 313.830,137.097 314.103 C 136.994 314.377,137.053 314.960,137.227 315.400 C 137.489 316.061,137.549 315.983,137.572 314.949 C 137.587 314.261,137.328 313.472,136.995 313.196 C 136.522 312.804,136.493 312.569,136.863 312.124 C 137.236 311.675,137.215 311.581,136.768 311.677 C 136.411 311.755,136.216 311.491,136.242 310.967 C 136.280 310.234,135.513 309.821,135.024 310.309 M170.518 313.898 C 172.233 313.973,174.933 313.972,176.518 313.897 C 178.103 313.821,176.700 313.759,173.400 313.760 C 170.100 313.761,168.803 313.822,170.518 313.898 M138.168 316.700 C 138.254 317.194,138.148 317.708,137.932 317.842 C 137.710 317.979,137.900 318.420,138.370 318.858 C 138.826 319.283,139.200 319.872,139.200 320.167 C 139.200 320.461,139.474 320.930,139.809 321.208 C 140.488 321.771,140.260 320.696,139.489 319.700 C 139.276 319.425,139.259 319.197,139.451 319.194 C 139.643 319.191,139.609 319.056,139.375 318.894 C 139.142 318.732,138.739 317.970,138.481 317.200 C 138.223 316.430,138.082 316.205,138.168 316.700 M140.800 323.576 C 140.800 324.029,140.980 324.400,141.200 324.400 C 141.420 324.400,141.600 324.141,141.600 323.824 C 141.600 323.507,141.420 323.136,141.200 323.000 C 140.980 322.864,140.800 323.123,140.800 323.576 M147.548 333.737 C 147.793 334.032,147.875 334.392,147.730 334.537 C 147.585 334.682,147.677 334.800,147.933 334.800 C 148.468 334.800,148.491 334.703,148.157 333.833 C 148.024 333.485,147.732 333.200,147.508 333.200 C 147.253 333.200,147.267 333.399,147.548 333.737 M132.938 338.129 C 133.425 338.966,135.585 341.200,135.908 341.200 C 136.013 341.200,135.874 340.930,135.600 340.600 C 135.326 340.270,135.242 340.000,135.413 340.000 C 135.584 340.000,135.246 339.589,134.662 339.087 C 134.078 338.585,133.600 337.985,133.600 337.754 C 133.600 337.523,133.347 337.333,133.038 337.333 C 132.589 337.333,132.569 337.493,132.938 338.129 M136.417 342.218 C 136.757 342.648,137.277 343.485,137.573 344.079 C 137.870 344.672,138.392 345.265,138.734 345.396 C 139.227 345.585,139.208 345.472,138.638 344.842 C 138.244 344.407,138.006 343.904,138.109 343.725 C 138.212 343.546,137.734 342.958,137.048 342.418 C 136.131 341.696,135.964 341.643,136.417 342.218 M157.040 343.759 C 157.158 344.068,157.603 344.412,158.028 344.523 C 159.055 344.792,159.001 344.624,157.812 343.845 C 157.039 343.338,156.871 343.319,157.040 343.759 M169.000 386.000 L 145.800 386.210 168.800 386.253 C 181.450 386.276,193.150 386.168,194.800 386.012 L 197.800 385.729 195.000 385.760 C 193.460 385.777,181.760 385.885,169.000 386.000 M99.100 386.691 L 97.600 386.848 97.600 393.424 L 97.600 400.000 115.200 400.000 L 132.800 400.000 132.800 393.600 L 132.800 387.200 134.400 387.200 C 135.280 387.200,136.000 387.020,136.000 386.800 C 136.000 386.418,102.656 386.319,99.100 386.691 " stroke="none" fill="#58b4e3" fill-rule="evenodd"></path><path id="path2" d="M132.800 6.400 L 132.800 12.800 134.400 12.800 C 135.280 12.800,136.000 12.973,136.000 13.185 C 136.000 13.799,267.823 14.630,275.000 14.062 C 277.935 13.829,265.553 13.669,237.800 13.582 C 214.920 13.511,197.100 13.388,198.200 13.309 L 200.200 13.166 200.081 6.583 L 199.963 -0.000 166.381 -0.000 L 132.800 0.000 132.800 6.400 M138.900 26.282 C 138.405 26.378,138.000 26.634,138.000 26.851 C 138.000 27.069,137.831 27.143,137.625 27.015 C 137.418 26.888,137.083 27.080,136.880 27.443 C 136.640 27.872,136.417 27.951,136.243 27.669 C 135.883 27.087,134.800 27.536,134.800 28.266 C 134.800 28.599,134.587 28.739,134.300 28.594 C 134.025 28.455,134.112 28.597,134.494 28.910 C 134.875 29.223,135.072 29.595,134.931 29.736 C 134.789 29.877,134.448 29.806,134.172 29.577 C 133.821 29.285,133.583 29.305,133.374 29.642 C 133.182 29.953,133.246 30.019,133.553 29.829 C 133.893 29.619,134.002 29.940,133.934 30.949 C 133.854 32.142,133.746 32.288,133.250 31.882 C 132.748 31.471,132.713 31.547,133.017 32.400 C 133.796 34.588,133.698 58.798,132.911 58.814 C 132.343 58.825,132.391 58.934,133.147 59.353 C 133.938 59.792,133.987 59.919,133.447 60.127 C 132.891 60.340,132.800 61.218,132.800 66.387 C 132.800 70.129,132.649 72.400,132.400 72.400 C 132.180 72.400,132.045 72.625,132.100 72.900 C 132.172 73.262,131.095 73.461,128.200 73.623 C 126.000 73.745,151.560 73.843,185.000 73.840 C 227.894 73.837,238.496 73.761,221.000 73.584 C 207.360 73.446,196.155 73.303,196.100 73.266 C 195.451 72.836,196.406 72.400,198.000 72.400 L 200.000 72.400 200.000 66.400 L 200.000 60.400 197.733 60.400 C 192.346 60.400,196.724 59.791,203.727 59.567 C 207.947 59.431,196.955 59.338,179.300 59.360 L 147.200 59.400 147.200 50.000 L 147.200 40.600 179.300 40.640 C 196.955 40.662,207.947 40.569,203.727 40.433 C 196.724 40.209,192.346 39.600,197.733 39.600 L 200.000 39.600 200.000 33.600 L 200.000 27.600 198.000 27.600 C 196.406 27.600,195.451 27.164,196.100 26.734 C 196.155 26.697,207.360 26.554,221.000 26.416 C 240.623 26.217,234.735 26.159,192.800 26.137 C 163.650 26.121,139.395 26.187,138.900 26.282 M280.929 86.300 C 288.370 86.361,300.430 86.361,307.729 86.300 C 315.028 86.239,308.940 86.189,294.200 86.189 C 279.460 86.189,273.488 86.239,280.929 86.300 M132.719 92.902 C 132.803 97.340,132.697 99.442,132.370 99.836 C 132.113 100.146,132.077 100.400,132.290 100.400 C 132.503 100.400,132.891 99.995,133.151 99.500 C 133.412 99.005,133.537 98.909,133.430 99.287 C 133.207 100.073,133.786 100.579,134.443 100.174 C 134.763 99.975,134.759 99.822,134.427 99.617 C 134.175 99.461,134.603 99.333,135.378 99.333 C 136.586 99.333,136.717 99.420,136.294 99.937 C 135.947 100.359,136.134 100.323,136.916 99.813 C 137.530 99.414,138.214 98.747,138.436 98.332 C 138.658 97.917,138.981 97.665,139.153 97.771 C 139.326 97.878,139.467 97.695,139.467 97.365 C 139.467 97.025,139.232 96.856,138.924 96.974 C 138.493 97.139,138.472 97.013,138.821 96.360 C 139.070 95.895,139.506 95.632,139.826 95.755 C 140.386 95.969,140.455 94.722,139.914 94.180 C 139.781 94.048,139.837 93.370,140.037 92.673 C 140.236 91.976,140.400 91.365,140.400 91.315 C 140.400 91.266,140.085 91.324,139.700 91.445 C 139.114 91.629,139.130 91.554,139.800 90.979 C 140.462 90.411,140.479 90.334,139.900 90.534 C 139.218 90.769,139.020 90.420,139.179 89.260 C 139.225 88.925,139.065 88.836,138.759 89.025 C 138.408 89.243,138.343 89.125,138.537 88.621 C 138.741 88.089,138.655 87.970,138.192 88.148 C 137.786 88.303,137.419 88.041,137.117 87.378 C 136.602 86.248,134.390 86.135,134.095 87.223 C 134.001 87.571,134.070 87.641,134.270 87.400 C 134.765 86.801,135.900 86.715,136.232 87.251 C 136.419 87.554,136.351 87.617,136.044 87.427 C 135.781 87.264,135.311 87.342,135.000 87.600 C 134.367 88.125,133.600 87.820,133.600 87.043 C 133.600 86.763,133.375 86.533,133.100 86.533 C 132.716 86.532,132.628 88.009,132.719 92.902 M138.100 113.096 C 136.246 113.201,135.600 113.388,135.600 113.819 C 135.600 114.216,135.157 114.400,134.200 114.400 L 132.800 114.400 132.800 120.176 C 132.800 123.583,132.964 126.054,133.199 126.199 C 134.343 126.906,150.570 127.156,206.400 127.324 C 247.963 127.450,257.720 127.414,236.600 127.215 C 219.440 127.053,204.177 126.781,202.681 126.611 L 199.963 126.303 200.081 119.951 L 200.200 113.599 198.000 113.560 C 196.297 113.529,196.026 113.448,196.800 113.200 C 197.752 112.895,143.334 112.799,138.100 113.096 M130.400 153.200 C 133.590 153.328,135.390 153.471,134.400 153.516 L 132.600 153.599 132.721 159.663 C 132.813 164.312,132.720 165.804,132.321 166.057 C 132.026 166.244,133.481 166.390,135.676 166.394 C 137.822 166.397,139.663 166.579,139.800 166.800 C 139.936 167.020,141.522 167.201,143.324 167.201 C 145.126 167.202,149.429 167.320,152.887 167.463 L 159.173 167.724 159.338 177.562 C 159.429 182.973,159.521 187.962,159.543 188.648 C 159.572 189.584,159.949 190.185,161.047 191.048 C 161.852 191.682,162.743 192.425,163.027 192.700 C 163.311 192.975,163.961 193.203,164.471 193.206 C 165.218 193.211,165.282 193.288,164.800 193.600 C 164.410 193.852,172.234 193.961,187.200 193.910 C 199.850 193.867,207.410 193.727,204.000 193.600 C 200.590 193.473,198.279 193.330,198.864 193.284 L 199.928 193.200 199.980 186.717 C 200.009 183.151,200.127 180.140,200.242 180.025 C 200.356 179.910,205.614 179.710,211.925 179.580 C 221.008 179.393,218.250 179.329,198.700 179.272 L 174.000 179.200 174.000 173.400 L 174.000 167.600 198.700 167.507 C 212.285 167.456,218.936 167.363,213.481 167.300 C 207.117 167.227,203.649 167.045,203.804 166.793 C 203.956 166.547,202.504 166.372,199.924 166.326 C 197.656 166.285,196.745 166.186,197.900 166.105 L 200.000 165.958 200.000 160.179 L 200.000 154.400 197.024 154.400 C 192.815 154.400,192.684 153.619,196.876 153.527 C 208.023 153.283,182.341 152.915,155.800 152.939 C 138.640 152.954,127.210 153.072,130.400 153.200 M226.160 173.400 C 226.161 176.700,226.222 177.997,226.298 176.282 C 226.373 174.567,226.372 171.867,226.297 170.282 C 226.221 168.697,226.159 170.100,226.160 173.400 M190.240 213.093 C 190.079 213.254,188.834 213.514,187.474 213.670 C 184.241 214.041,182.386 214.380,181.400 214.777 C 180.960 214.955,180.097 215.303,179.481 215.550 C 178.866 215.798,177.867 216.000,177.261 216.000 C 176.656 216.000,175.918 216.225,175.621 216.500 C 175.190 216.901,175.140 216.899,175.371 216.490 C 175.533 216.204,175.026 216.336,174.218 216.790 C 173.425 217.236,172.457 217.600,172.068 217.600 C 171.679 217.600,171.189 217.751,170.980 217.936 C 170.771 218.121,169.970 218.503,169.200 218.787 C 167.637 219.361,162.711 221.689,162.400 222.000 C 162.290 222.110,161.390 222.640,160.400 223.178 C 159.410 223.715,158.353 224.399,158.052 224.697 C 157.750 224.995,156.973 225.345,156.325 225.475 C 155.676 225.605,154.867 226.136,154.527 226.655 C 154.187 227.175,153.614 227.606,153.254 227.613 C 152.470 227.628,150.654 229.160,150.287 230.116 C 150.143 230.492,149.704 230.801,149.313 230.802 C 148.921 230.803,147.990 231.523,147.244 232.402 C 146.498 233.281,145.632 234.000,145.320 234.000 C 145.008 234.000,144.864 234.180,145.000 234.400 C 145.136 234.620,144.937 234.800,144.557 234.800 C 144.177 234.800,143.985 234.918,144.130 235.063 C 144.492 235.425,143.595 236.444,143.155 236.172 C 142.960 236.051,142.800 236.233,142.800 236.576 C 142.800 236.919,142.513 237.200,142.163 237.200 C 141.812 237.200,141.431 237.560,141.316 238.000 C 141.201 238.440,140.991 238.800,140.850 238.800 C 140.708 238.800,140.356 239.179,140.067 239.642 C 139.717 240.202,139.698 240.387,140.010 240.194 C 140.360 239.978,140.373 240.103,140.062 240.685 C 139.525 241.688,138.400 242.634,138.400 242.082 C 138.400 241.854,138.607 241.598,138.860 241.513 C 139.113 241.429,139.235 241.105,139.131 240.794 C 139.024 240.471,138.538 241.125,138.000 242.315 C 137.378 243.690,136.842 244.368,136.428 244.301 C 135.968 244.227,135.767 244.601,135.676 245.700 C 135.542 247.322,135.089 247.609,134.414 246.500 C 134.070 245.934,134.037 246.011,134.239 246.905 C 134.453 247.849,134.381 247.976,133.744 247.782 C 133.155 247.602,133.187 247.695,133.900 248.226 C 134.395 248.596,134.797 249.101,134.794 249.349 C 134.790 249.621,134.653 249.588,134.449 249.266 C 134.190 248.856,133.913 248.985,133.256 249.820 C 132.377 250.937,132.170 251.600,132.700 251.600 C 132.865 251.600,132.951 259.822,132.892 269.872 C 132.793 286.667,132.942 289.789,133.778 288.435 C 133.926 288.196,133.857 288.000,133.624 288.000 C 133.391 288.000,133.200 287.730,133.200 287.400 C 133.200 287.046,133.569 286.797,134.100 286.794 C 134.666 286.790,134.822 286.675,134.521 286.483 C 134.205 286.283,134.169 285.978,134.415 285.589 C 135.056 284.576,134.871 283.672,134.204 284.554 C 133.556 285.409,133.765 282.878,134.452 281.532 C 134.675 281.098,134.620 280.794,134.297 280.664 C 133.992 280.541,134.060 280.451,134.471 280.432 C 134.840 280.414,135.218 280.715,135.312 281.100 C 135.406 281.485,135.482 281.215,135.481 280.500 C 135.478 279.195,135.042 278.766,134.665 279.700 C 134.554 279.975,134.449 279.831,134.432 279.380 C 134.414 278.929,134.592 278.368,134.828 278.132 C 135.436 277.524,135.561 276.326,135.108 275.452 C 134.847 274.948,134.854 274.786,135.131 274.958 C 135.643 275.274,136.154 273.789,135.769 273.104 C 135.614 272.827,135.828 272.937,136.244 273.348 C 136.788 273.887,136.859 274.148,136.498 274.282 C 136.221 274.385,136.097 274.633,136.221 274.834 C 136.345 275.035,136.262 275.200,136.036 275.200 C 135.810 275.200,135.732 275.477,135.862 275.816 C 136.045 276.295,136.221 276.195,136.649 275.371 C 137.385 273.952,137.344 272.941,136.539 272.632 C 135.942 272.403,135.951 272.324,136.634 271.824 C 137.051 271.520,137.556 271.373,137.757 271.497 C 137.959 271.622,138.005 271.531,137.859 271.296 C 137.714 271.061,137.778 270.807,138.001 270.733 C 138.456 270.581,138.908 268.794,138.475 268.856 C 137.723 268.963,137.667 268.731,138.275 268.020 C 138.642 267.592,139.089 267.331,139.267 267.441 C 139.445 267.551,139.491 267.382,139.370 267.065 C 139.247 266.746,139.622 266.014,140.209 265.427 C 141.069 264.568,141.178 264.256,140.786 263.783 C 140.344 263.250,140.523 263.030,141.300 263.153 C 141.465 263.179,141.600 262.790,141.600 262.288 C 141.600 261.787,141.960 261.117,142.400 260.800 C 142.840 260.483,143.200 260.021,143.200 259.773 C 143.200 258.981,144.468 256.749,145.044 256.528 C 145.350 256.410,145.603 256.019,145.606 255.657 C 145.611 255.087,145.663 255.079,146.000 255.600 C 146.383 256.193,146.611 255.735,146.447 254.700 C 146.421 254.535,146.580 254.400,146.800 254.400 C 147.020 254.400,147.200 254.139,147.200 253.820 C 147.200 253.501,147.515 253.056,147.900 252.832 C 148.285 252.608,148.467 252.419,148.304 252.412 C 148.141 252.405,148.308 252.049,148.675 251.620 C 149.042 251.192,149.485 250.929,149.660 251.037 C 149.834 251.145,150.091 250.777,150.231 250.219 C 150.371 249.662,150.601 249.256,150.743 249.318 C 150.884 249.380,151.570 248.839,152.266 248.115 C 152.962 247.392,153.444 246.800,153.337 246.800 C 153.230 246.800,153.413 246.530,153.743 246.200 C 154.073 245.870,154.546 245.600,154.795 245.600 C 155.044 245.600,155.160 245.458,155.052 245.285 C 154.945 245.112,155.386 244.736,156.031 244.450 C 156.676 244.165,157.103 243.766,156.979 243.565 C 156.854 243.364,156.954 243.200,157.200 243.200 C 157.446 243.200,157.519 242.992,157.362 242.738 C 157.195 242.468,157.251 242.384,157.498 242.537 C 157.729 242.680,158.495 242.258,159.200 241.600 C 159.905 240.942,160.671 240.520,160.902 240.663 C 161.149 240.816,161.205 240.732,161.038 240.462 C 160.869 240.188,161.007 240.000,161.376 240.000 C 161.719 240.000,162.000 239.790,162.000 239.533 C 162.000 239.277,162.117 239.183,162.260 239.326 C 162.402 239.469,162.897 239.159,163.360 238.638 C 164.146 237.751,165.821 236.941,166.500 237.121 C 166.665 237.164,166.800 237.020,166.800 236.800 C 166.800 236.580,167.070 236.400,167.400 236.400 C 167.730 236.400,168.000 236.248,168.000 236.063 C 168.000 235.706,170.982 234.103,172.000 233.912 C 172.330 233.851,172.690 233.710,172.800 233.600 C 173.278 233.122,174.839 232.400,175.395 232.400 C 175.728 232.400,176.000 232.220,176.000 232.000 C 176.000 231.780,176.414 231.600,176.920 231.600 C 177.426 231.600,178.019 231.421,178.238 231.202 C 178.456 230.984,179.109 230.765,179.689 230.717 C 180.268 230.670,180.655 230.488,180.548 230.315 C 180.440 230.142,181.094 230.000,182.000 230.000 C 182.996 230.000,183.550 229.842,183.400 229.600 C 183.253 229.362,183.729 229.200,184.576 229.200 C 185.359 229.200,186.000 229.054,186.000 228.875 C 186.000 228.696,186.840 228.506,187.867 228.453 C 188.894 228.400,190.085 228.169,190.513 227.940 C 190.941 227.710,192.448 227.508,193.861 227.490 C 195.578 227.468,196.374 227.309,196.259 227.010 C 196.165 226.765,196.473 226.545,196.944 226.523 C 197.415 226.500,197.575 226.568,197.300 226.674 C 196.062 227.151,196.995 227.633,199.000 227.552 C 201.294 227.459,201.606 227.235,200.600 226.400 C 200.116 225.998,200.000 224.748,200.000 219.908 C 200.000 214.803,199.913 213.948,199.413 214.140 C 199.090 214.264,198.702 214.165,198.551 213.921 C 198.385 213.652,198.459 213.589,198.738 213.762 C 199.003 213.926,199.200 213.809,199.200 213.488 C 199.200 212.882,197.001 212.773,196.100 213.335 C 195.818 213.511,195.600 213.462,195.600 213.224 C 195.600 212.744,190.709 212.625,190.240 213.093 M200.800 213.267 C 200.800 213.523,200.918 213.615,201.063 213.470 C 201.208 213.325,201.568 213.407,201.863 213.652 C 202.201 213.933,202.400 213.947,202.400 213.692 C 202.400 213.468,202.115 213.176,201.767 213.043 C 200.897 212.709,200.800 212.732,200.800 213.267 M197.019 213.570 C 196.893 213.773,197.107 214.022,197.495 214.123 C 198.032 214.263,197.985 214.318,197.300 214.354 C 196.420 214.399,196.134 213.999,196.667 213.467 C 197.058 213.076,197.283 213.142,197.019 213.570 M132.585 248.775 C 132.712 248.982,132.498 249.349,132.108 249.590 C 131.454 249.996,131.461 250.020,132.195 249.910 C 133.030 249.785,133.590 248.400,132.806 248.400 C 132.557 248.400,132.457 248.569,132.585 248.775 M183.447 253.294 C 179.849 255.712,179.200 257.599,179.200 265.638 L 179.200 272.400 173.300 272.446 C 170.055 272.471,167.040 272.463,166.600 272.428 C 165.935 272.375,165.901 272.434,166.400 272.776 C 166.863 273.094,166.677 273.189,165.580 273.194 C 163.736 273.202,162.143 273.970,161.628 275.100 C 161.402 275.595,161.033 276.000,160.809 276.000 C 160.584 276.000,160.400 276.281,160.400 276.624 C 160.400 276.967,160.233 277.144,160.029 277.018 C 159.818 276.887,159.734 277.391,159.833 278.195 C 159.929 278.968,159.831 279.600,159.614 279.600 C 159.227 279.600,159.279 304.949,159.672 308.000 C 159.873 309.560,161.176 311.994,161.812 311.997 C 162.038 311.999,162.483 312.360,162.800 312.800 C 163.236 313.405,163.835 313.600,165.255 313.600 C 166.383 313.600,167.214 313.800,167.335 314.100 C 167.496 314.500,167.543 314.500,167.568 314.100 C 167.592 313.724,169.044 313.600,173.400 313.600 L 179.200 313.600 179.200 320.223 C 179.200 329.324,179.740 330.998,183.400 333.257 C 184.755 334.092,201.976 334.391,203.200 333.600 C 203.620 333.328,202.902 333.192,200.800 333.146 C 199.150 333.110,198.300 333.005,198.910 332.913 L 200.021 332.745 199.910 326.672 L 199.800 320.600 196.800 320.395 L 193.800 320.189 197.800 319.875 C 204.028 319.387,204.141 319.324,198.900 319.260 L 194.000 319.200 194.000 312.000 C 194.000 307.467,193.852 304.800,193.600 304.800 C 193.380 304.800,193.200 304.350,193.200 303.800 C 193.200 303.250,193.059 302.800,192.886 302.800 C 192.714 302.800,192.254 302.260,191.864 301.600 C 191.474 300.940,190.895 300.400,190.577 300.400 C 190.260 300.400,190.000 300.243,190.000 300.052 C 190.000 299.861,189.685 299.705,189.300 299.707 C 188.915 299.708,185.315 299.685,181.300 299.655 L 174.000 299.600 174.000 293.400 L 174.000 287.200 180.900 287.157 C 184.695 287.133,188.291 287.109,188.890 287.103 C 189.490 287.096,189.884 286.936,189.766 286.746 C 189.649 286.556,189.758 286.400,190.010 286.400 C 190.864 286.400,193.200 283.612,193.200 282.593 C 193.200 282.047,193.380 281.600,193.600 281.600 C 193.851 281.600,194.000 279.000,194.000 274.600 L 194.000 267.600 199.989 267.600 L 205.979 267.600 206.106 273.500 L 206.234 279.400 206.217 273.400 L 206.200 267.400 204.892 267.274 C 204.173 267.205,203.689 266.980,203.816 266.774 C 203.953 266.553,202.362 266.370,199.924 266.326 C 197.656 266.285,196.745 266.186,197.900 266.105 L 200.000 265.958 200.000 260.179 L 200.000 254.400 197.024 254.400 C 192.866 254.400,192.754 253.666,196.887 253.498 C 199.677 253.384,199.442 253.350,195.400 253.279 C 192.760 253.233,189.160 253.103,187.400 252.991 C 185.180 252.850,183.969 252.942,183.447 253.294 M220.489 266.067 C 220.440 269.294,220.509 272.219,220.643 272.567 C 220.907 273.255,222.400 273.452,222.400 272.800 C 222.400 272.580,222.045 272.400,221.610 272.400 C 220.864 272.400,220.814 272.065,220.699 266.300 L 220.578 260.200 220.489 266.067 M207.855 285.000 C 207.982 285.330,208.321 285.600,208.609 285.600 C 208.898 285.600,209.214 285.825,209.312 286.100 C 209.416 286.391,209.639 286.452,209.845 286.245 C 210.052 286.039,209.988 285.815,209.693 285.710 C 209.414 285.610,208.932 285.275,208.621 284.964 C 207.888 284.231,207.566 284.246,207.855 285.000 M226.162 293.400 C 226.162 296.920,226.224 298.306,226.298 296.481 C 226.372 294.656,226.372 291.776,226.297 290.081 C 226.222 288.386,226.161 289.880,226.162 293.400 M132.502 291.121 C 132.427 292.814,132.564 293.439,133.102 293.859 C 133.765 294.375,133.765 294.390,133.100 294.158 C 132.715 294.024,132.400 294.093,132.400 294.311 C 132.400 294.528,132.727 294.792,133.127 294.897 C 133.727 295.054,133.838 294.870,133.761 293.843 C 133.633 292.127,133.634 292.127,133.212 292.795 C 132.917 293.261,132.850 293.194,132.904 292.485 C 132.945 291.929,133.170 291.656,133.486 291.778 C 133.769 291.886,134.000 291.711,134.000 291.387 C 134.000 291.064,133.820 290.800,133.600 290.800 C 133.380 290.800,133.200 290.519,133.200 290.176 C 133.200 289.833,133.380 289.664,133.600 289.800 C 133.820 289.936,134.000 289.878,134.000 289.670 C 134.000 287.834,132.588 289.202,132.502 291.121 M132.800 297.746 C 132.800 298.032,133.070 298.267,133.400 298.267 C 133.730 298.267,134.000 298.136,134.000 297.976 C 134.000 297.816,133.730 297.582,133.400 297.455 C 133.056 297.323,132.800 297.447,132.800 297.746 M132.800 316.934 C 132.800 334.913,132.787 335.221,132.024 334.813 C 131.256 334.402,130.409 334.943,130.960 335.493 C 131.092 335.625,131.200 335.510,131.200 335.238 C 131.200 334.902,131.403 334.946,131.832 335.375 C 132.180 335.723,132.600 335.924,132.766 335.821 C 132.931 335.719,133.067 335.889,133.067 336.200 C 133.067 336.511,132.928 336.679,132.758 336.574 C 132.588 336.469,132.475 336.737,132.508 337.171 C 132.553 337.767,132.693 337.855,133.084 337.531 C 133.462 337.217,133.600 337.246,133.600 337.638 C 133.600 337.933,134.078 338.585,134.662 339.087 C 135.246 339.589,135.584 340.000,135.413 340.000 C 135.242 340.000,135.330 340.274,135.608 340.609 C 136.037 341.126,136.000 341.175,135.360 340.929 C 134.725 340.686,134.763 340.838,135.603 341.898 C 136.152 342.590,136.763 343.166,136.962 343.178 C 137.161 343.190,136.981 342.803,136.562 342.318 C 135.884 341.532,135.937 341.543,137.048 342.418 C 137.734 342.958,138.212 343.546,138.109 343.725 C 138.006 343.904,138.244 344.407,138.638 344.842 C 139.330 345.606,139.328 345.624,138.591 345.341 C 137.909 345.080,137.890 345.117,138.413 345.684 C 138.736 346.033,139.066 346.256,139.148 346.179 C 139.316 346.018,140.400 347.034,140.400 347.353 C 140.400 347.820,142.372 349.497,142.639 349.258 C 142.798 349.116,142.815 349.312,142.679 349.694 C 142.438 350.364,143.632 351.434,144.099 350.967 C 144.212 350.855,144.424 351.242,144.571 351.829 C 144.719 352.415,144.940 352.793,145.064 352.669 C 145.188 352.546,145.735 352.975,146.281 353.623 C 146.827 354.272,147.424 354.709,147.608 354.595 C 147.792 354.481,148.062 354.764,148.207 355.223 C 148.372 355.742,148.693 355.973,149.057 355.834 C 149.384 355.708,149.534 355.783,149.397 356.005 C 149.263 356.222,149.342 356.400,149.573 356.400 C 149.804 356.400,150.535 356.967,151.197 357.659 C 151.858 358.352,152.400 358.704,152.400 358.441 C 152.400 358.179,152.844 358.408,153.387 358.951 C 153.930 359.494,154.740 360.054,155.187 360.196 C 155.634 360.338,156.000 360.593,156.000 360.764 C 156.000 360.935,156.855 361.505,157.900 362.032 C 158.945 362.558,159.890 363.085,160.000 363.203 C 160.110 363.320,161.460 364.042,163.000 364.806 C 164.540 365.571,165.860 366.332,165.933 366.498 C 166.007 366.664,166.412 366.800,166.833 366.800 C 167.255 366.800,167.600 366.947,167.600 367.128 C 167.600 367.308,168.492 367.698,169.582 367.995 C 170.672 368.292,171.469 368.689,171.352 368.877 C 171.236 369.066,171.289 369.194,171.470 369.163 C 172.352 369.009,173.625 369.236,173.452 369.515 C 173.345 369.688,173.730 369.869,174.306 369.917 C 174.883 369.965,175.455 370.147,175.578 370.321 C 175.700 370.496,176.427 370.681,177.193 370.733 C 177.960 370.785,178.761 371.001,178.973 371.213 C 179.186 371.426,179.763 371.600,180.256 371.600 C 180.749 371.600,181.243 371.746,181.353 371.924 C 181.463 372.102,182.415 372.293,183.467 372.347 C 184.520 372.402,185.476 372.571,185.591 372.723 C 185.706 372.875,186.790 373.000,188.000 373.000 C 189.210 373.000,190.312 373.154,190.449 373.341 C 190.662 373.633,196.636 373.835,197.800 373.590 C 198.020 373.543,198.335 373.527,198.500 373.553 C 199.003 373.632,198.834 372.880,198.300 372.665 C 198.025 372.554,198.295 372.449,198.900 372.432 L 200.000 372.400 199.995 366.700 C 199.989 360.831,199.797 359.200,199.111 359.200 C 198.893 359.200,198.818 359.470,198.945 359.800 C 199.104 360.215,198.918 360.400,198.338 360.400 C 197.662 360.400,197.592 360.292,197.973 359.833 C 198.360 359.366,198.265 359.285,197.433 359.377 C 196.877 359.438,196.518 359.333,196.635 359.144 C 196.752 358.955,196.577 358.800,196.247 358.800 C 195.917 358.800,195.529 358.991,195.386 359.223 C 195.143 359.616,194.689 359.580,192.000 358.954 C 191.450 358.825,189.962 358.627,188.694 358.512 C 187.425 358.397,186.289 358.145,186.170 357.951 C 186.051 357.758,185.333 357.600,184.576 357.600 C 183.819 357.600,183.200 357.420,183.200 357.200 C 183.200 356.980,182.837 356.800,182.394 356.800 C 181.267 356.800,178.400 355.869,178.400 355.503 C 178.400 355.336,177.759 355.200,176.976 355.200 C 176.129 355.200,175.653 355.038,175.800 354.800 C 175.936 354.580,175.785 354.400,175.464 354.400 C 175.144 354.400,173.855 353.860,172.600 353.200 C 171.345 352.540,169.977 352.000,169.559 352.000 C 169.142 352.000,168.800 351.820,168.800 351.600 C 168.800 351.380,168.545 351.200,168.233 351.200 C 167.922 351.200,167.607 351.065,167.533 350.900 C 167.283 350.336,163.707 348.026,163.463 348.271 C 163.329 348.405,163.105 348.219,162.967 347.857 C 162.828 347.496,162.509 347.200,162.257 347.199 C 162.006 347.199,161.170 346.654,160.400 345.989 C 159.630 345.324,158.601 344.677,158.114 344.550 C 157.627 344.424,157.120 343.978,156.987 343.560 C 156.855 343.142,156.601 342.800,156.424 342.800 C 155.985 342.800,152.000 338.909,152.000 338.480 C 152.000 338.290,151.550 337.894,151.001 337.600 C 150.451 337.306,150.090 336.977,150.198 336.869 C 150.306 336.760,150.036 336.420,149.597 336.113 C 149.159 335.806,148.786 335.160,148.768 334.677 C 148.751 334.195,148.646 334.025,148.535 334.300 C 148.424 334.575,148.158 334.800,147.943 334.800 C 147.728 334.800,147.647 334.647,147.763 334.461 C 147.878 334.274,147.609 333.732,147.166 333.255 C 146.722 332.779,146.460 332.226,146.583 332.027 C 146.707 331.827,146.356 331.309,145.804 330.874 C 145.252 330.440,144.800 329.797,144.800 329.446 C 144.800 329.094,144.440 328.582,144.000 328.307 C 143.560 328.032,143.200 327.573,143.200 327.287 C 143.200 326.767,142.857 326.263,141.463 324.734 C 141.058 324.290,140.814 323.589,140.922 323.178 C 141.029 322.766,140.868 322.222,140.563 321.969 C 140.258 321.716,140.110 321.345,140.234 321.145 C 140.358 320.944,140.221 320.830,139.930 320.890 C 139.611 320.956,139.412 320.649,139.430 320.120 C 139.446 319.636,139.311 319.331,139.130 319.443 C 138.948 319.556,138.800 319.472,138.800 319.257 C 138.800 319.042,139.025 318.763,139.300 318.637 C 139.575 318.511,139.410 318.503,138.934 318.620 C 137.854 318.885,137.407 318.258,138.204 317.596 C 138.532 317.324,138.797 316.899,138.794 316.651 C 138.791 316.403,138.613 316.470,138.400 316.800 C 138.102 317.261,138.009 317.123,138.000 316.200 C 137.991 315.277,137.898 315.139,137.600 315.600 C 137.163 316.276,137.165 316.282,137.057 313.520 C 137.026 312.706,136.748 311.806,136.441 311.520 C 135.978 311.088,135.937 311.102,136.203 311.600 C 136.379 311.930,136.158 311.840,135.713 311.400 C 134.861 310.559,134.911 309.662,135.769 310.374 C 136.128 310.672,136.267 310.622,136.267 310.194 C 136.267 309.867,136.027 309.600,135.733 309.600 C 135.440 309.600,135.198 309.465,135.195 309.300 C 135.192 309.135,135.086 308.550,134.960 308.000 C 134.780 307.216,134.823 307.129,135.159 307.600 C 135.514 308.096,135.589 308.040,135.594 307.276 C 135.597 306.768,135.465 306.420,135.300 306.502 C 135.135 306.584,134.574 306.208,134.052 305.665 C 133.504 305.094,133.364 304.777,133.719 304.914 C 134.497 305.212,134.891 304.264,134.269 303.590 C 133.908 303.199,133.915 303.148,134.300 303.365 C 134.575 303.520,134.800 303.472,134.800 303.257 C 134.800 303.042,134.577 302.792,134.305 302.702 C 134.032 302.611,133.783 301.861,133.751 301.035 C 133.719 300.208,133.492 299.332,133.246 299.086 C 132.918 298.758,132.800 303.474,132.800 316.934 M206.161 313.200 C 206.161 316.610,206.222 318.005,206.297 316.300 C 206.372 314.595,206.372 311.805,206.297 310.100 C 206.222 308.395,206.161 309.790,206.161 313.200 M220.518 319.700 L 220.563 325.800 220.692 320.100 L 220.821 314.400 226.511 314.372 C 229.640 314.356,232.560 314.189,233.000 314.000 C 233.492 313.789,231.231 313.645,227.137 313.628 L 220.474 313.600 220.518 319.700 M215.600 333.224 C 214.069 334.031,214.540 334.284,216.181 333.536 C 216.918 333.200,217.814 332.134,217.100 332.443 C 217.045 332.467,216.370 332.818,215.600 333.224 M208.639 373.095 C 208.151 373.582,208.419 374.082,208.937 373.652 C 209.232 373.407,209.579 373.312,209.707 373.440 C 209.835 373.568,210.241 373.505,210.609 373.299 C 211.147 372.998,211.043 372.917,210.078 372.890 C 209.418 372.871,208.770 372.963,208.639 373.095 M194.800 386.012 C 193.150 386.168,179.245 386.319,163.900 386.348 C 145.602 386.382,136.000 386.538,136.000 386.800 C 136.000 387.020,135.280 387.200,134.400 387.200 L 132.800 387.200 132.800 393.600 L 132.800 400.000 166.381 400.000 L 199.963 400.000 200.081 393.417 L 200.200 386.834 198.200 386.691 C 197.100 386.612,218.970 386.480,246.800 386.397 C 281.775 386.293,293.200 386.164,283.800 385.980 C 265.814 385.627,198.621 385.652,194.800 386.012 " stroke="none" fill="#4fa9dc" fill-rule="evenodd"></path><path id="path3" d="M256.900 26.287 C 257.505 26.378,258.495 26.378,259.100 26.287 C 259.705 26.195,259.210 26.120,258.000 26.120 C 256.790 26.120,256.295 26.195,256.900 26.287 M310.200 59.200 C 319.849 59.326,323.883 59.469,320.000 59.549 C 313.727 59.678,305.162 60.202,307.118 60.337 L 308.035 60.400 307.978 66.700 C 307.924 72.518,307.977 73.015,308.660 73.200 C 309.067 73.310,297.340 73.492,282.600 73.604 C 258.888 73.785,261.446 73.823,304.800 73.935 C 331.750 74.004,354.160 74.159,354.600 74.278 C 355.040 74.397,356.066 74.525,356.881 74.562 C 357.695 74.599,358.490 74.757,358.648 74.914 C 358.805 75.071,359.488 75.203,360.167 75.206 C 361.110 75.211,361.259 75.303,360.800 75.600 C 360.315 75.914,360.372 75.989,361.100 75.994 C 361.595 75.997,362.000 76.180,362.000 76.400 C 362.000 76.620,362.360 76.800,362.800 76.800 C 363.240 76.800,363.600 76.980,363.600 77.200 C 363.600 77.420,363.842 77.600,364.139 77.600 C 364.435 77.600,364.873 78.005,365.112 78.500 C 365.351 78.995,365.558 79.167,365.573 78.882 C 365.603 78.311,367.600 80.124,367.600 80.722 C 367.600 80.920,368.095 81.616,368.700 82.270 C 370.046 83.725,370.800 84.991,370.800 85.795 C 370.800 86.128,370.980 86.400,371.200 86.400 C 371.420 86.400,371.600 86.850,371.600 87.400 C 371.600 87.950,371.780 88.400,372.000 88.400 C 372.258 88.400,372.400 92.733,372.400 100.600 L 372.400 112.800 345.300 112.802 C 317.829 112.804,309.042 113.021,309.454 113.687 C 309.579 113.889,309.311 114.150,308.860 114.268 C 308.086 114.471,308.032 114.821,307.920 120.406 L 307.800 126.329 309.200 126.560 C 309.970 126.687,313.525 126.793,317.100 126.796 C 321.164 126.798,323.600 126.950,323.600 127.200 C 323.600 127.463,333.615 127.600,352.844 127.600 L 382.088 127.600 383.844 129.381 L 385.600 131.162 385.600 139.981 C 385.600 145.594,385.455 148.800,385.200 148.800 C 384.980 148.800,384.800 149.083,384.800 149.429 C 384.800 150.246,383.834 151.200,383.005 151.200 C 382.646 151.200,382.464 151.380,382.600 151.600 C 382.736 151.820,382.477 152.000,382.024 152.000 C 381.571 152.000,381.200 152.180,381.200 152.400 C 381.200 152.664,368.933 152.800,345.200 152.800 C 313.467 152.800,309.200 152.871,309.200 153.400 C 309.200 153.730,308.930 154.000,308.600 154.000 C 308.093 154.000,308.000 154.933,308.000 160.000 C 308.000 165.121,308.090 166.000,308.613 166.000 C 308.949 166.000,309.329 166.270,309.455 166.600 C 309.642 167.087,310.583 167.200,314.443 167.200 L 319.200 167.200 319.200 190.824 C 319.200 209.616,319.302 214.386,319.700 214.147 C 319.991 213.972,319.950 214.161,319.600 214.600 C 319.250 215.039,319.209 215.228,319.500 215.053 C 319.848 214.844,320.000 215.064,320.000 215.776 C 320.000 216.339,320.180 216.800,320.400 216.800 C 320.620 216.800,320.800 216.998,320.800 217.240 C 320.800 217.968,323.104 219.886,324.290 220.146 C 325.885 220.494,336.137 220.693,355.500 220.750 L 372.400 220.800 372.400 276.600 L 372.400 332.400 358.100 332.420 C 342.555 332.442,326.318 332.749,326.041 333.026 C 325.691 333.376,325.160 333.188,325.400 332.800 C 325.776 332.191,325.220 332.323,324.539 333.004 C 324.207 333.336,323.770 333.505,323.568 333.380 C 323.365 333.255,323.200 333.354,323.200 333.600 C 323.200 333.846,323.056 333.958,322.881 333.850 C 322.705 333.742,322.300 333.818,321.981 334.020 C 321.558 334.288,321.541 334.389,321.916 334.394 C 322.337 334.399,322.337 334.502,321.916 334.956 C 321.542 335.358,321.319 335.386,321.106 335.056 C 320.931 334.784,320.810 334.955,320.806 335.476 C 320.803 335.958,320.620 336.464,320.400 336.600 C 320.180 336.736,320.000 337.377,320.000 338.024 C 320.000 338.671,319.820 339.200,319.600 339.200 C 319.338 339.200,319.200 347.333,319.200 362.800 L 319.200 386.400 314.850 386.400 C 312.458 386.400,309.938 386.513,309.250 386.650 L 308.000 386.900 308.000 393.454 L 308.000 400.008 345.900 399.992 L 383.800 399.977 385.100 398.836 C 385.815 398.208,386.400 397.403,386.400 397.047 C 386.400 396.691,386.580 396.400,386.800 396.400 C 387.066 396.400,387.200 357.733,387.200 281.200 C 387.200 166.267,387.202 166.000,388.000 166.000 C 388.440 166.000,388.800 165.820,388.800 165.600 C 388.800 165.380,389.171 165.200,389.624 165.200 C 390.077 165.200,390.336 165.020,390.200 164.800 C 390.064 164.580,390.215 164.400,390.535 164.400 C 391.304 164.400,397.200 158.623,397.200 157.870 C 397.200 157.549,397.456 157.187,397.770 157.067 C 399.697 156.327,401.161 126.321,399.300 125.700 C 399.025 125.608,398.800 125.188,398.800 124.767 C 398.800 124.345,398.620 124.000,398.400 124.000 C 398.180 124.000,398.000 123.640,398.000 123.200 C 398.000 122.760,397.820 122.400,397.600 122.400 C 397.380 122.400,397.200 122.154,397.200 121.854 C 397.200 121.134,393.024 116.800,392.331 116.800 C 392.035 116.800,391.568 116.440,391.293 116.000 C 391.018 115.560,390.525 115.200,390.197 115.200 C 389.868 115.200,389.600 115.020,389.600 114.800 C 389.600 114.580,389.317 114.400,388.971 114.400 C 387.258 114.400,387.200 113.925,387.200 99.829 C 387.200 92.443,387.059 86.400,386.887 86.400 C 386.715 86.400,386.534 85.905,386.484 85.300 C 386.434 84.695,386.215 84.140,385.997 84.067 C 385.778 83.993,385.600 83.228,385.600 82.367 C 385.600 81.505,385.420 80.800,385.200 80.800 C 384.980 80.800,384.800 80.440,384.800 80.000 C 384.800 79.560,384.654 79.200,384.475 79.200 C 384.296 79.200,383.902 78.570,383.600 77.800 C 383.298 77.030,382.904 76.400,382.725 76.400 C 382.546 76.400,382.400 76.080,382.400 75.688 C 382.400 75.297,382.040 74.717,381.600 74.400 C 381.160 74.083,380.800 73.493,380.800 73.088 C 380.800 72.684,380.620 72.464,380.400 72.600 C 380.180 72.736,380.000 72.648,380.000 72.404 C 380.000 72.161,378.754 70.755,377.231 69.281 C 373.129 65.310,372.046 64.400,371.426 64.400 C 371.119 64.400,370.803 64.210,370.726 63.978 C 370.649 63.746,370.292 63.513,369.933 63.461 C 369.574 63.408,368.993 63.126,368.640 62.833 C 368.288 62.541,368.000 62.427,368.000 62.580 C 368.000 62.732,367.715 62.573,367.368 62.225 C 367.020 61.877,366.582 61.687,366.395 61.803 C 366.208 61.918,365.942 61.830,365.804 61.607 C 365.666 61.383,365.124 61.200,364.600 61.200 C 364.076 61.200,363.536 61.020,363.400 60.800 C 363.264 60.580,362.713 60.400,362.176 60.400 C 361.639 60.400,361.200 60.246,361.200 60.058 C 361.200 59.870,359.741 59.707,357.957 59.695 C 356.172 59.684,354.518 59.478,354.277 59.237 C 353.967 58.927,345.129 58.827,323.820 58.893 C 297.837 58.974,296.006 59.015,310.200 59.200 M339.600 86.000 C 339.600 86.255,336.166 86.400,330.100 86.401 C 324.875 86.402,317.769 86.520,314.310 86.664 L 308.019 86.924 307.910 93.362 L 307.800 99.800 303.600 100.022 C 301.290 100.144,309.058 100.279,320.862 100.322 C 344.291 100.407,345.600 100.280,345.600 97.926 C 345.600 97.527,345.751 97.200,345.936 97.200 C 346.560 97.200,347.200 95.173,347.200 93.193 C 347.200 89.517,344.622 86.400,341.582 86.400 C 340.864 86.400,340.456 86.234,340.600 86.000 C 340.736 85.780,340.567 85.600,340.224 85.600 C 339.881 85.600,339.600 85.780,339.600 86.000 M356.861 167.600 L 372.400 167.600 372.400 186.800 L 372.400 206.000 353.200 206.000 L 334.000 206.000 334.000 186.540 L 334.000 167.080 337.661 167.340 C 339.675 167.483,348.315 167.600,356.861 167.600 M345.618 186.600 L 345.571 194.000 352.986 194.000 L 360.400 194.000 360.400 186.600 L 360.400 179.200 353.032 179.200 L 345.665 179.200 345.618 186.600 M372.400 366.400 L 372.400 385.600 368.600 385.600 C 366.333 385.600,364.800 385.761,364.800 386.000 C 364.800 386.260,359.400 386.400,349.400 386.400 L 334.000 386.400 334.000 366.800 L 334.000 347.200 353.200 347.200 L 372.400 347.200 372.400 366.400 M346.602 359.197 C 346.460 359.426,346.177 359.509,345.972 359.383 C 345.748 359.244,345.600 362.004,345.600 366.334 C 345.600 374.875,344.682 374.000,353.642 374.000 L 360.418 374.000 360.309 366.500 L 360.200 359.000 353.530 358.890 C 349.226 358.820,346.768 358.929,346.602 359.197 " stroke="none" fill="#066ec4" fill-rule="evenodd"></path><path id="path4" d="M108.300 1.076 C 107.915 1.176,107.600 1.635,107.600 2.096 C 107.600 2.557,107.647 2.858,107.704 2.767 C 107.762 2.675,108.150 2.195,108.566 1.700 C 108.983 1.205,109.251 0.821,109.162 0.846 C 109.073 0.872,108.685 0.975,108.300 1.076 M106.160 5.374 C 106.160 5.910,106.304 6.259,106.480 6.151 C 106.656 6.042,106.800 5.603,106.800 5.176 C 106.800 4.749,106.656 4.400,106.480 4.400 C 106.304 4.400,106.160 4.838,106.160 5.374 M106.097 32.890 L 106.000 58.781 75.700 58.890 C 58.218 58.954,45.159 59.155,44.830 59.367 C 44.517 59.569,43.201 59.690,41.906 59.638 C 40.612 59.585,39.320 59.734,39.036 59.970 C 38.752 60.206,38.042 60.439,37.460 60.487 C 36.877 60.535,36.400 60.715,36.400 60.887 C 36.400 61.059,36.008 61.200,35.528 61.200 C 34.395 61.200,32.000 62.069,32.000 62.480 C 32.000 62.656,31.775 62.804,31.500 62.809 C 31.225 62.814,30.550 63.170,30.000 63.600 C 29.450 64.030,28.775 64.386,28.500 64.391 C 27.895 64.402,27.450 64.782,23.098 69.010 C 21.226 70.829,19.364 72.876,18.961 73.559 C 18.557 74.241,18.120 74.800,17.988 74.800 C 17.857 74.800,17.502 75.430,17.200 76.200 C 16.898 76.970,16.504 77.600,16.325 77.600 C 16.146 77.600,16.000 77.949,16.000 78.376 C 16.000 78.803,15.820 79.264,15.600 79.400 C 15.380 79.536,15.200 80.007,15.200 80.447 C 15.200 80.887,15.057 81.159,14.883 81.051 C 14.709 80.944,14.537 81.245,14.501 81.721 C 14.465 82.197,14.273 82.949,14.073 83.393 C 12.918 85.965,12.800 87.539,12.800 100.328 C 12.800 109.403,12.666 113.600,12.376 113.600 C 12.143 113.600,12.064 113.780,12.200 114.000 C 12.341 114.228,11.996 114.400,11.400 114.400 C 10.804 114.400,10.459 114.572,10.600 114.800 C 10.736 115.020,10.564 115.200,10.218 115.200 C 8.927 115.200,2.800 120.493,2.800 121.609 C 2.800 121.843,2.440 122.420,2.000 122.892 C 1.560 123.364,1.200 124.152,1.200 124.642 C 1.200 125.132,0.975 125.608,0.700 125.700 C -0.029 125.943,-0.029 154.457,0.700 154.700 C 0.975 154.792,1.200 155.124,1.200 155.439 C 1.200 156.263,2.033 157.616,3.300 158.850 C 3.905 159.439,4.400 160.178,4.400 160.493 C 4.400 160.807,4.895 161.320,5.500 161.632 C 6.105 161.945,7.055 162.650,7.611 163.200 C 8.830 164.406,10.173 165.200,10.995 165.200 C 11.328 165.200,11.600 165.380,11.600 165.600 C 11.600 165.820,11.870 166.000,12.200 166.000 C 12.732 166.000,12.800 179.045,12.800 281.005 C 12.800 372.272,12.903 396.193,13.300 396.895 C 13.575 397.381,14.314 398.278,14.942 398.889 L 16.085 400.000 56.842 400.000 L 97.600 400.000 97.600 393.400 C 97.600 389.770,97.645 386.772,97.700 386.738 C 97.755 386.703,119.040 386.465,145.000 386.207 L 192.200 385.739 136.500 385.669 L 80.800 385.600 80.800 361.800 C 80.800 346.200,80.662 338.000,80.400 338.000 C 80.180 338.000,80.000 337.595,80.000 337.100 C 79.999 336.605,79.549 335.677,79.000 335.038 C 78.450 334.399,78.000 334.006,78.000 334.166 C 78.000 334.326,77.717 334.174,77.371 333.829 C 77.026 333.483,76.295 333.200,75.748 333.200 C 75.170 333.200,74.859 333.028,75.006 332.790 C 75.145 332.565,75.111 332.406,74.930 332.437 C 74.748 332.469,64.025 332.473,51.100 332.447 L 27.600 332.400 27.600 276.600 L 27.600 220.800 51.300 220.753 C 64.335 220.727,75.225 220.734,75.500 220.770 C 75.775 220.806,76.000 220.647,76.000 220.418 C 76.000 220.188,76.232 220.000,76.517 220.000 C 77.465 220.000,80.000 217.252,80.000 216.224 C 80.000 215.687,80.180 215.136,80.400 215.000 C 80.659 214.840,80.800 206.484,80.800 191.240 L 80.800 167.728 90.700 167.465 C 96.145 167.320,103.480 167.170,107.000 167.132 L 113.400 167.063 108.000 166.779 C 105.030 166.622,101.484 166.473,100.119 166.447 L 97.638 166.400 97.519 159.999 C 97.443 155.922,97.545 153.597,97.800 153.593 C 98.020 153.590,97.930 153.413,97.600 153.200 C 97.223 152.957,82.603 152.810,58.324 152.806 C 32.977 152.802,19.562 152.662,19.400 152.400 C 19.264 152.180,18.803 152.000,18.376 152.000 C 17.949 152.000,17.600 151.809,17.600 151.576 C 17.600 151.343,17.443 151.250,17.252 151.368 C 16.834 151.626,15.594 150.536,14.900 149.301 C 14.543 148.665,14.400 145.939,14.400 139.761 L 14.400 131.112 16.181 129.356 L 17.962 127.600 77.081 127.523 C 112.768 127.477,130.889 127.341,122.800 127.180 C 115.430 127.032,106.762 126.887,103.537 126.856 L 97.674 126.800 97.621 120.600 L 97.568 114.400 99.384 114.400 C 100.647 114.400,101.200 114.235,101.200 113.857 C 101.200 112.905,97.284 112.800,61.941 112.800 L 27.600 112.800 27.600 101.024 C 27.600 93.604,27.748 89.156,28.000 89.000 C 28.220 88.864,28.400 88.349,28.400 87.856 C 28.400 86.821,29.257 84.808,29.700 84.803 C 29.865 84.801,30.000 84.440,30.000 84.000 C 30.000 83.560,30.150 83.200,30.332 83.200 C 30.515 83.200,30.902 82.756,31.193 82.214 C 31.483 81.671,31.878 81.325,32.070 81.443 C 32.262 81.562,32.377 81.511,32.325 81.330 C 32.142 80.693,33.400 79.200,34.120 79.200 C 34.520 79.200,34.736 79.020,34.600 78.800 C 34.464 78.580,34.567 78.400,34.829 78.400 C 35.092 78.400,35.599 78.085,35.957 77.700 C 36.796 76.799,38.223 76.000,38.995 76.000 C 39.328 76.000,39.600 75.820,39.600 75.600 C 39.600 75.380,40.020 75.200,40.533 75.200 C 41.047 75.200,41.586 75.081,41.731 74.936 C 42.287 74.380,45.711 74.310,84.600 74.066 C 113.846 73.882,121.428 73.749,112.800 73.571 C 106.310 73.437,100.280 73.161,99.400 72.957 L 97.800 72.587 97.690 66.315 L 97.580 60.043 95.690 59.894 C 94.650 59.811,96.542 59.712,99.892 59.672 C 105.852 59.602,105.990 59.580,106.203 58.700 C 106.323 58.205,106.370 46.370,106.307 32.400 L 106.194 7.000 106.097 32.890 M120.800 13.992 C 120.800 14.266,132.481 14.400,156.467 14.400 C 176.083 14.400,192.058 14.335,191.967 14.255 C 191.528 13.875,120.800 13.613,120.800 13.992 M173.500 41.100 C 188.075 41.158,211.925 41.158,226.500 41.100 C 241.075 41.042,229.150 40.994,200.000 40.994 C 170.850 40.994,158.925 41.042,173.500 41.100 M123.718 59.098 C 125.433 59.173,128.133 59.172,129.718 59.097 C 131.303 59.021,129.900 58.959,126.600 58.960 C 123.300 58.961,122.003 59.022,123.718 59.098 M173.500 59.100 C 188.075 59.158,211.925 59.158,226.500 59.100 C 241.075 59.042,229.150 58.994,200.000 58.994 C 170.850 58.994,158.925 59.042,173.500 59.100 M270.518 59.098 C 272.233 59.173,274.933 59.172,276.518 59.097 C 278.103 59.021,276.700 58.959,273.400 58.960 C 270.100 58.961,268.803 59.022,270.518 59.098 M59.200 86.008 C 59.200 86.224,58.748 86.400,58.195 86.400 C 56.543 86.400,53.600 88.589,53.600 89.818 C 53.600 90.138,53.420 90.400,53.200 90.400 C 52.969 90.400,52.800 91.675,52.800 93.424 C 52.800 95.337,52.947 96.356,53.200 96.200 C 53.555 95.981,53.795 96.822,53.637 97.730 C 53.606 97.911,53.765 97.945,53.990 97.806 C 54.216 97.667,54.400 97.756,54.400 98.005 C 54.400 98.662,55.441 99.600,56.171 99.600 C 56.517 99.600,56.800 99.780,56.800 100.000 C 56.800 100.462,78.875 100.552,90.336 100.137 L 97.600 99.874 97.600 93.396 L 97.600 86.917 100.660 86.659 C 102.344 86.516,110.399 86.397,118.560 86.394 C 128.347 86.390,133.196 86.255,132.800 85.998 C 131.977 85.462,59.200 85.473,59.200 86.008 M66.000 186.800 L 66.000 206.000 46.800 206.000 L 27.600 206.000 27.600 186.800 L 27.600 167.600 46.800 167.600 L 66.000 167.600 66.000 186.800 M158.973 177.000 C 158.973 182.280,159.030 184.385,159.099 181.677 C 159.168 178.969,159.168 174.649,159.099 172.077 C 159.029 169.505,158.972 171.720,158.973 177.000 M240.973 177.000 C 240.973 182.280,241.030 184.385,241.099 181.677 C 241.168 178.969,241.168 174.649,241.099 172.077 C 241.029 169.505,240.972 171.720,240.973 177.000 M39.600 186.609 L 39.600 194.018 46.900 193.909 L 54.200 193.800 54.277 186.500 L 54.353 179.200 46.977 179.200 L 39.600 179.200 39.600 186.609 M120.800 276.400 C 120.800 277.147,120.907 277.253,121.280 276.880 C 121.653 276.507,121.653 276.293,121.280 275.920 C 120.907 275.547,120.800 275.653,120.800 276.400 M158.980 293.400 C 158.980 300.880,159.034 303.883,159.099 300.074 C 159.165 296.265,159.165 290.145,159.099 286.474 C 159.033 282.803,158.979 285.920,158.980 293.400 M240.979 293.400 C 240.979 300.660,241.033 303.686,241.099 300.125 C 241.165 296.564,241.166 290.624,241.099 286.925 C 241.033 283.226,240.979 286.140,240.979 293.400 M119.614 287.000 C 119.226 288.955,119.232 289.778,119.626 288.825 C 119.848 288.289,119.954 287.569,119.861 287.225 C 119.769 286.881,119.657 286.780,119.614 287.000 M119.322 298.765 C 119.497 299.914,120.000 300.303,120.000 299.290 C 120.000 298.827,119.819 298.336,119.599 298.199 C 119.369 298.057,119.251 298.299,119.322 298.765 M170.518 314.298 C 172.233 314.373,174.933 314.372,176.518 314.297 C 178.103 314.221,176.700 314.159,173.400 314.160 C 170.100 314.161,168.803 314.222,170.518 314.298 M124.806 323.100 C 124.824 323.977,125.588 324.559,125.594 323.700 C 125.597 323.205,125.420 322.800,125.200 322.800 C 124.980 322.800,124.803 322.935,124.806 323.100 M149.879 335.854 C 149.747 335.987,149.908 336.365,150.238 336.695 C 151.015 337.472,151.284 337.203,150.628 336.306 C 150.349 335.924,150.012 335.721,149.879 335.854 M66.000 366.400 L 66.000 385.600 46.800 385.600 L 27.600 385.600 27.600 366.400 L 27.600 347.200 46.800 347.200 L 66.000 347.200 66.000 366.400 M39.778 359.314 C 39.669 359.597,39.630 362.972,39.690 366.814 L 39.800 373.800 47.000 373.800 L 54.200 373.800 54.260 366.600 C 54.312 360.252,54.241 359.368,53.660 359.128 C 52.358 358.592,39.991 358.757,39.778 359.314 M199.100 359.082 C 199.595 359.178,200.405 359.178,200.900 359.082 C 201.395 358.987,200.990 358.909,200.000 358.909 C 199.010 358.909,198.605 358.987,199.100 359.082 " stroke="none" fill="#64bce4" fill-rule="evenodd"></path></g></svg>